<?xml version="1.0" encoding="utf-8"?>
<svg xmlns="http://www.w3.org/2000/svg" xmlns:xlink="http://www.w3.org/1999/xlink" width="1800.4192" height="1095.5458" viewBox="288.06708 245.27144 1800.4192 1095.5458">
  <defs>
    <linearGradient id="linear-gradient" x1="0.5" x2="0.796" y2="0.958" gradientUnits="objectBoundingBox">
      <stop offset="0" stop-color="#b4f1fe" />
      <stop offset="0.469" stop-color="#b5f1e6" stop-opacity="0.78" />
      <stop offset="1" stop-color="#fff" stop-opacity="0" />
    </linearGradient>
    <linearGradient id="linear-gradient-2" x1="0.5" x2="0.5" y2="1" gradientUnits="objectBoundingBox">
      <stop offset="0" stop-color="#fff" />
      <stop offset="0.46" stop-color="#d6f7f1" />
      <stop offset="1" stop-color="#b4f1fe" />
    </linearGradient>
  </defs>
  <g id="그룹_1" data-name="그룹 1" transform="translate(185.97 235.419)">
    <path id="패스_1" data-name="패스 1" d="M779.862-2240.349s201.07,148.116,285.585,365.5c15.237,39.193,26.7,80.707,32.477,124.015,37.791,283.058-78.008,608.054-175.306,634.125l1054.237-282.482c33.893-9.082-1.5-10.882-7.727-34.13-6.376-23.8-7.3-23.933-16.439-58.037-20.906-78.021-50.894-187.961-75.05-278.113l-47.572-177.54c-90.854-339.071-134.525-502.052-144.132-537.909C1680.4-2484.823,779.862-2240.349,779.862-2240.349Z" transform="matrix(0.966, 0.259, -0.259, 0.966, -352.039, 1962.983)" fill="url(#linear-gradient)" />
    <g id="패스_5" data-name="패스 5" transform="translate(638 366.507)" fill="none" opacity="0.3">
      <path d="M80.312,0c44.355,0,80.312,38.515,80.312,86.027s-35.957,86.027-80.312,86.027S0,133.538,0,86.027,35.957,0,80.312,0Z" stroke="none" />
      <path d="M 80.31230926513672 29.99998474121094 C 52.56999206542969 29.99998474121094 30 55.13339996337891 30 86.026611328125 C 30 116.9198226928711 52.56999206542969 142.0532379150391 80.31230926513672 142.0532379150391 C 108.0546264648438 142.0532379150391 130.6246185302734 116.9198226928711 130.6246185302734 86.026611328125 C 130.6246185302734 55.13339996337891 108.0546264648438 29.99998474121094 80.31230926513672 29.99998474121094 M 80.31230926513672 -1.52587890625e-05 C 124.6675720214844 -1.52587890625e-05 160.6246185302734 38.51539611816406 160.6246185302734 86.026611328125 C 160.6246185302734 133.5377655029297 124.6675720214844 172.0532379150391 80.31230926513672 172.0532379150391 C 35.95704650878906 172.0532379150391 0 133.5377655029297 0 86.026611328125 C 0 38.51539611816406 35.95704650878906 -1.52587890625e-05 80.31230926513672 -1.52587890625e-05 Z" stroke="none" fill="#def3fc" />
    </g>
    <path id="패스_4" data-name="패스 4" d="M203.489-117.736C341.246-79.248,561.58,20.179,561.58,166.667S460.218,404.208,333.655,386.831c-43.538-5.978-87.8-14.09-137.361-20.214C145.587,291.44,42.43,139.9-12.019,59.178-6.739,43.112-.459,27.24,6.323,10.969,48.218-78.747,140.111-128.651,203.489-117.736Z" transform="matrix(0.829, 0.559, -0.559, 0.829, 41.491, 321.538)" opacity="0.58" fill="url(#linear-gradient-2)" />
    <g id="패스_2" data-name="패스 2" transform="translate(1668.006 540.951)" fill="none">
      <path d="M103.082,0c56.931,0,103.082,45.036,103.082,100.591S160.013,201.182,103.082,201.182,0,156.146,0,100.591,46.151,0,103.082,0Z" stroke="none" />
      <path d="M 103.0822143554688 9.999984741210938 C 51.75650024414062 9.999984741210938 10 50.63883972167969 10 100.5908050537109 C 10 150.542724609375 51.75650024414062 191.1815948486328 103.0822143554688 191.1815948486328 C 154.4079284667969 191.1815948486328 196.1644287109375 150.542724609375 196.1644287109375 100.5908050537109 C 196.1644287109375 50.63883972167969 154.4079284667969 9.999984741210938 103.0822143554688 9.999984741210938 M 103.0822143554688 -1.52587890625e-05 C 160.0129241943359 -1.52587890625e-05 206.1644287109375 45.03605651855469 206.1644287109375 100.5908050537109 C 206.1644287109375 156.1455535888672 160.0129241943359 201.1815948486328 103.0822143554688 201.1815948486328 C 46.15150451660156 201.1815948486328 0 156.1455535888672 0 100.5908050537109 C 0 45.03605651855469 46.15150451660156 -1.52587890625e-05 103.0822143554688 -1.52587890625e-05 Z" stroke="none" fill="rgba(255,255,255,0.52)" />
    </g>
    <path id="search_left-_1504_" data-name="search_left-[#1504]" d="M243,144.115v0Zm0-5.95v-15.57s0,3.493,0,7.785,0,7.785,0,7.785ZM243,120v20.76s0-4.648,0-10.38S243,120,243,120Z" transform="translate(1005.619 -45.85)" fill="#909090" fill-rule="evenodd" />
    <path id="패스_3" data-name="패스 3" d="M294.756,47.356c32.234,30.79,52.28,73.815,52.28,121.409,0,93.874-77.985,169.974-174.184,169.974a176.025,176.025,0,0,1-120.664-47.39C281.547,61.991,246.28,95.833,294.756,47.356Z" transform="translate(2163.302 445.097) rotate(135)" fill="rgba(255,255,255,0.63)" opacity="0.58" />
  </g>
</svg>