<svg id="레이어_1" data-name="레이어 1" xmlns="http://www.w3.org/2000/svg" viewBox="0 0 124 124"><defs><style>.cls-1{fill:#4b70ac;}.cls-2{fill:#eaa51b;stroke:#d96030;}.cls-2,.cls-3{stroke-miterlimit:10;stroke-width:4px;}.cls-3{fill:#ef8555;stroke:#ef8555;}.cls-3,.cls-4{stroke-linecap:round;}.cls-4{fill:none;stroke:#f6b37a;stroke-linejoin:round;}.cls-5{fill:#d96030;}.cls-6{fill:#543a19;}.cls-7{fill:#d5d5d6;}.cls-8{fill:#fff;}</style></defs><rect class="cls-1" width="124" height="124"/><rect class="cls-2" x="34.55" y="19.91" width="54.89" height="84.18"/><polygon class="cls-3" points="34.55 19.91 66.05 12.57 66.05 111.43 34.55 104.09 34.55 19.91"/><polygon class="cls-4" points="53.38 106.22 63.26 108.37 63.26 67.15 53.38 66.91 53.38 106.22"/><polygon class="cls-4" points="53.38 17.79 53.38 57.09 63.26 56.85 63.26 15.63 53.38 17.79"/><polygon class="cls-4" points="46.6 19.27 37.72 21.2 37.72 57.47 46.6 57.25 46.6 19.27"/><polygon class="cls-4" points="37.72 66.53 37.72 102.8 46.6 104.73 46.6 66.75 37.72 66.53"/><polygon class="cls-5" points="72.06 113.02 68.06 114.07 68.06 9.93 72.06 10.98 72.06 113.02"/><path class="cls-6" d="M62.76,64.05c.85,0,1.33-.84,1.33-1.88s-.48-1.88-1.33-1.88h-3v3.76Z"/><ellipse class="cls-7" cx="59.12" cy="62.17" rx="2.88" ry="3.56"/><path class="cls-8" d="M59.14,60.54c-.18-.45-.18-.87.29-1.06s.85.15,1,.6a.7.7,0,0,1-.38,1C59.61,61.29,59.32,61,59.14,60.54Z"/></svg>