<svg id="레이어_1" data-name="레이어 1" xmlns="http://www.w3.org/2000/svg" viewBox="0 0 124 124"><defs><style>.cls-1{fill:#2fb1e7;}.cls-2{fill:#abdcef;}.cls-3{fill:#70c7ef;}.cls-4{fill:#f7df79;}.cls-5{fill:#e2ba49;}.cls-6{fill:#fff;}.cls-7{fill:#d9d9da;}.cls-8{fill:#dd5139;}.cls-9{fill:none;stroke:#fff;stroke-linecap:round;stroke-miterlimit:10;stroke-width:3px;}</style></defs><path class="cls-1" d="M46.15,65.68c23.36,3.43,56.39,4.44,77.85-6.46V0H0V78.77C11.83,71.49,29.52,63.24,46.15,65.68Z"/><path class="cls-2" d="M112,71.93a62.84,62.84,0,0,0-34.49,2.95c-11.66,4.53-23.45,5.89-41.4,3.48C23.89,76.72,8.53,84.92,0,90.3V124H124V70.87A23.35,23.35,0,0,1,112,71.93Z"/><path class="cls-3" d="M46.15,65.68C29.52,63.24,11.83,71.49,0,78.77V90.3c8.53-5.38,23.89-13.58,36.13-11.94,17.95,2.41,29.74,1,41.4-3.48A62.84,62.84,0,0,1,112,71.93a23.35,23.35,0,0,0,12-1.06V59.22C102.54,70.12,69.51,69.11,46.15,65.68Z"/><polygon class="cls-4" points="0 93.93 124 73.7 124 124 0 124 0 93.93"/><ellipse class="cls-5" cx="63.24" cy="107.28" rx="37.46" ry="4.62"/><path class="cls-6" d="M59.79,73.56,46.25,107.08a1.51,1.51,0,0,0,.83,2,1.62,1.62,0,0,0,.56.1,1.48,1.48,0,0,0,1.39-.93l12.9-31.94A15.67,15.67,0,0,1,59.79,73.56Z"/><path class="cls-7" d="M76.94,35.11a1.5,1.5,0,0,0-2,.82L59.79,73.56a15.67,15.67,0,0,0,2.14,2.71L77.77,37.06A1.5,1.5,0,0,0,76.94,35.11Z"/><path class="cls-6" d="M76,37.49c-11.62-4-30.07,3.51-39.67,19a22,22,0,0,1,3.46.89c5.92,2,10.06,6.26,10.85,9.23a.66.66,0,0,0,.54.49C58.61,48.17,70.52,35.6,76,37.49Z"/><path class="cls-8" d="M76,37.49C70.52,35.6,58.61,48.17,51.15,67.08A.68.68,0,0,0,51.7,67c2.45-1.85,8.32-2.59,14.24-.54S76,72.69,76.79,75.66a.68.68,0,0,0,.36.43C83,56.61,81.41,39.37,76,37.49Z"/><path class="cls-6" d="M76,37.49c5.44,1.88,7,19.12,1.18,38.6a.71.71,0,0,0,.74,0c2.45-1.85,8.31-2.59,14.23-.54a22,22,0,0,1,3.26,1.44C97.41,58.85,87.58,41.51,76,37.49Z"/><path class="cls-8" d="M104.61,74.44C103.46,58.33,90,42.36,76,37.49c11.61,4,21.44,21.36,19.41,39.45C95.38,76.94,97.25,73.19,104.61,74.44Z"/><path class="cls-8" d="M30.61,48.8C41.47,36.85,61.91,32.62,76,37.49c-11.62-4-30.07,3.51-39.67,19C36.3,56.47,37.15,52.37,30.61,48.8Z"/><line class="cls-9" x1="76.68" y1="35.74" x2="75.97" y2="37.49"/></svg>