<svg id="레이어_1" data-name="레이어 1" xmlns="http://www.w3.org/2000/svg" xmlns:xlink="http://www.w3.org/1999/xlink" viewBox="0 0 124 124"><defs><style>.cls-1,.cls-7{fill:none;}.cls-2{fill:#88d1f5;}.cls-3{fill:#65af51;}.cls-4{fill:#8fc76a;}.cls-5{fill:#dfbc6a;}.cls-6{clip-path:url(#clip-path);}.cls-7{stroke:#b28046;stroke-miterlimit:10;}.cls-8{font-size:27.96px;fill:#fff;font-family:Jalnan;}</style><clipPath id="clip-path"><path class="cls-1" d="M75,41.38a1.79,1.79,0,0,0-1.19-.66,1.75,1.75,0,0,0-1.3.38c-2.66,2.11-5.71,2.54-9.78,2.54-3.49,0-7.14-.35-10.2-2.88a1.77,1.77,0,0,0-2.89,1.53,1.76,1.76,0,0,0,.63,1.2c3.93,3.26,8.51,3.7,12.46,3.7,3.79,0,8.15-.26,12-3.31A1.79,1.79,0,0,0,75,41.38Z"/></clipPath></defs><rect class="cls-2" width="124" height="124"/><path class="cls-3" d="M85.09,52.41a33.29,33.29,0,0,1,5.13,17.24c0,20.25-12.62,28-32.86,28-10.83,0-19.48-2.23-25.18-7.4,4.8,9.86,15.43,13.92,30,13.92,20.25,0,32.86-7.79,32.86-28C95.07,67.1,90.84,58.81,85.09,52.41Z"/><path class="cls-3" d="M62.71,28.46c5,0,5,2.32,10.06,2.32S81,26.45,86,26.45H39.43c5,0,8.2,4.33,13.23,4.33S57.68,28.46,62.71,28.46Z"/><path class="cls-4" d="M85.09,52.41a45.35,45.35,0,0,0-12.68-9.92c.75-.6,1.48-1.25,2.2-1.91A75.21,75.21,0,0,0,86,26.45c-5,0-8.21,4.33-13.24,4.33s-5-2.32-10.06-2.32-5,2.32-10.05,2.32-8.21-4.33-13.23-4.33c0,0,5.9,9.7,13.21,15.73-11.18,5.43-23.29,18.6-23.29,34a32,32,0,0,0,2.83,14.11c5.7,5.17,14.35,7.4,25.18,7.4,20.24,0,32.86-7.78,32.86-28A33.29,33.29,0,0,0,85.09,52.41Z"/><path class="cls-3" d="M72.77,19.8c-5,0-5,3.57-10.06,3.57s-5-3.57-10.05-3.57-8.21,6.65-13.23,6.65H86C81,26.45,77.8,19.8,72.77,19.8Z"/><path class="cls-5" d="M75,41.38a1.79,1.79,0,0,0-1.19-.66,1.75,1.75,0,0,0-1.3.38c-2.66,2.11-5.71,2.54-9.78,2.54-3.49,0-7.14-.35-10.2-2.88a1.77,1.77,0,0,0-2.89,1.53,1.76,1.76,0,0,0,.63,1.2c3.93,3.26,8.51,3.7,12.46,3.7,3.79,0,8.15-.26,12-3.31A1.79,1.79,0,0,0,75,41.38Z"/><g class="cls-6"><path class="cls-7" d="M53.89,39.41S53,45.1,56.89,49"/><path class="cls-7" d="M59.5,39.77s-.87,5.69,3,9.55"/><path class="cls-7" d="M66.91,39.77s-.87,5.69,3,9.55"/><path class="cls-7" d="M72.56,37.78s-.87,5.69,3,9.56"/></g><text class="cls-8" transform="translate(48.22 88.96)">￦</text></svg>