<svg id="레이어_1" data-name="레이어 1" xmlns="http://www.w3.org/2000/svg" viewBox="0 0 124 124"><defs><style>.cls-1{fill:#f2a389;}.cls-2,.cls-6{fill:#fff;}.cls-2{opacity:0.76;}.cls-3{fill:#f5c243;}.cls-4{fill:#d09a19;}.cls-5,.cls-7{fill:none;stroke-miterlimit:10;}.cls-5{stroke:#fbdd8b;}.cls-7{stroke:#fff;stroke-linecap:round;stroke-width:1.5px;}</style></defs><rect class="cls-1" width="124" height="124"/><path class="cls-2" d="M88.21,54.2V40.74H36v64.13c0,3.7,11.69,6.69,26.11,6.69s26.11-3,26.11-6.69V86.24c7.33-.25,13.21-7.32,13.21-16S95.54,54.45,88.21,54.2Zm0,22.94V63.3c3.12.17,5.61,3.2,5.61,6.92S91.37,77,88.25,77.14Z"/><path class="cls-3" d="M83.66,46.18l-43-.44V101c0,3.69,8.9,5.59,21.42,5.59s21.56-1.46,21.56-5.16Z"/><rect class="cls-4" x="68.33" y="51.62" width="10.43" height="49.04" rx="3.74"/><rect class="cls-4" x="46.42" y="51.62" width="10.43" height="49.04" rx="3.74"/><circle class="cls-5" cx="56.39" cy="78.6" r="2.07"/><circle class="cls-5" cx="65.41" cy="86.18" r="1.46"/><circle class="cls-5" cx="50.17" cy="84.1" r="1.46"/><circle class="cls-5" cx="49.4" cy="64.11" r="1.46"/><circle class="cls-5" cx="78.59" cy="76.15" r="2.07"/><circle class="cls-5" cx="76.73" cy="65.58" r="2.28"/><circle class="cls-5" cx="45.25" cy="71.43" r="2.28"/><circle class="cls-5" cx="62.17" cy="70.94" r="2.76"/><path class="cls-6" d="M85.79,32.78C82.71,31.11,73.3,29.9,62.17,29.9,51.51,29.9,42.43,31,39,32.57a6.94,6.94,0,0,0-4.85,6.61V77.56c0,2.82,1.63,5.11,3.65,5.11h.68c2,0,3.66-2.29,3.66-5.11V64.13c0-2.83,1.64-5.12,3.66-5.12h.68c2,0,3.65,2.29,3.65,5.12v5.39c0,2.83,1.64,5.12,3.66,5.12h.68c2,0,3.65-2.29,3.65-5.12V64.13c0-2.83,1.64-5.12,3.66-5.12h.68c2,0,3.66,2.29,3.66,5.12V77.56c0,2.82,1.63,5.11,3.65,5.11h.68c2,0,3.66-2.29,3.66-5.11V54.09c0-2.82,1.63-5.12,3.65-5.12h.68c2,0,3.66,2.3,3.66,5.12v7.45c0,2.83,1.64,5.12,3.66,5.12h.67c2,0,3.66-2.29,3.66-5.12V41.24h0v-2A6.94,6.94,0,0,0,85.79,32.78Z"/><line class="cls-7" x1="82.72" y1="17.73" x2="82.72" y2="14.99"/><line class="cls-7" x1="79.21" y1="19.77" x2="76.83" y2="18.4"/><line class="cls-7" x1="79.1" y1="23.88" x2="76.73" y2="25.25"/><line class="cls-7" x1="82.72" y1="25.88" x2="82.72" y2="28.63"/><line class="cls-7" x1="86.22" y1="23.82" x2="88.6" y2="25.19"/><line class="cls-7" x1="86.35" y1="19.7" x2="88.73" y2="18.33"/><line class="cls-7" x1="29.38" y1="26.75" x2="29.38" y2="24.51"/><line class="cls-7" x1="26.51" y1="28.42" x2="24.57" y2="27.3"/><line class="cls-7" x1="26.43" y1="31.78" x2="24.49" y2="32.9"/><line class="cls-7" x1="29.38" y1="33.41" x2="29.38" y2="35.65"/><line class="cls-7" x1="32.24" y1="31.72" x2="34.18" y2="32.85"/><line class="cls-7" x1="32.35" y1="28.36" x2="34.29" y2="27.24"/></svg>