<svg id="레이어_1" data-name="레이어 1" xmlns="http://www.w3.org/2000/svg" xmlns:xlink="http://www.w3.org/1999/xlink" viewBox="0 0 124 124"><defs><style>.cls-1,.cls-10,.cls-9{fill:none;}.cls-2{fill:#7cadd1;}.cls-3{clip-path:url(#clip-path);}.cls-4{fill:#f6dd70;}.cls-5{fill:#f2bb3d;}.cls-6{fill:#ee774b;}.cls-7{fill:#dbebf9;}.cls-8{fill:#fff;}.cls-9{stroke:#ee774b;stroke-linecap:round;stroke-linejoin:round;stroke-width:2.5px;}.cls-10{stroke:#dbebf9;stroke-miterlimit:10;}</style><clipPath id="clip-path"><rect class="cls-1" width="124" height="124"/></clipPath></defs><rect class="cls-2" width="124" height="124"/><g class="cls-3"><path class="cls-4" d="M41,40.16S49.4,39.1,52.85,34s4.33-9.66,8.4-9.6,8.91,9.6,1.88,15.43S48.59,38.72,41,40.16Z"/><path class="cls-5" d="M41,40.16s-1.72.25-1.56,1.51,4.91,3.09,9.05-1C48.49,40.71,44.23,39.47,41,40.16Z"/><path class="cls-4" d="M67.52,49.27s1.24-3.85,7.08-2.74,11.29,8.45,8.68,16c0,0-5-5.58-8.19-6.86S67.12,51.88,67.52,49.27Z"/><path class="cls-5" d="M67.52,49.27c-.57,1.77,4.78,5.49,7,5.93C85,57.35,88.1,63.83,86.91,68.83s-3.37,2.3-5.18-4.47-8.45-9.25-8.45-9.25S69.47,53.26,68,51.36C67,49.92,67.52,49.27,67.52,49.27Z"/><path class="cls-4" d="M37,54.91a16.25,16.25,0,0,1,11.23,7.21c4,6.46,6,10.75,8.54,3.94S53.65,53.76,49,52.72,37,54.91,37,54.91Z"/><path class="cls-5" d="M35.37,55.17S38.6,53.52,45,58.5c4.52,3.49,4.07,6.73,8,10.59,0,0-2.5-2.69-5.29-5.59S43.75,58.07,35.37,55.17Z"/><path class="cls-4" d="M54.46,77.32S52.78,75.21,56.79,70s9.31-10.94,13.75-8.23,6.5,9.48.81,15.54S58.19,83,54.46,77.32Z"/><polygon class="cls-6" points="92.17 71.41 90.05 73.98 87.92 71.41 85.79 73.98 83.66 71.41 81.53 73.98 79.41 71.41 77.28 73.98 75.15 71.41 73.02 73.98 70.89 71.41 68.77 73.98 66.64 71.41 64.51 73.98 62.38 71.41 60.25 73.98 58.12 71.41 56 73.98 53.87 71.41 51.74 73.98 49.61 71.41 47.48 73.98 45.36 71.41 43.23 73.98 41.1 71.41 38.97 73.98 36.84 71.41 34.72 73.98 32.59 71.41 30.46 73.98 30.46 75.52 94.3 75.52 94.3 73.98 92.17 71.41"/><path class="cls-7" d="M36.13,112.26c.33-9.92-2-19.31,3.92-21.33s5.87-3.39,0-3.13S36.13,86,34.86,81.28a16.66,16.66,0,0,0-2.73-5.76H30.46l2,11c-1.67,16.17-1,47.08-1,47.08h5.19C35.68,128,35.86,120.75,36.13,112.26Z"/><path class="cls-8" d="M88,100.58C86.22,93,86.74,90,89.29,85.13a96.16,96.16,0,0,0,4.29-9.61H32.13a16.66,16.66,0,0,1,2.73,5.76c1.27,4.76-.68,6.78,5.19,6.52s5.93,1.11,0,3.13-3.59,11.41-3.92,21.33c-.27,8.49-.45,15.78.52,21.3H89.32C89.42,123.7,89.38,106.57,88,100.58Z"/><path class="cls-7" d="M94.3,75.52h-.72a96.16,96.16,0,0,1-4.29,9.61C86.74,90,86.22,93,88,100.58c1.4,6,1.44,23.12,1.34,33h4s1-28-1-47.08Z"/><path class="cls-9" d="M45.15,95.81v2.31c-.64-.15-1.28-.34-1.93-.55V91.26a3.19,3.19,0,0,1,.07-.69.72.72,0,0,1,.24-.4.69.69,0,0,1,.45-.12,2.75,2.75,0,0,1,.71.12c.54.15,1.08.28,1.63.39a5.43,5.43,0,0,1,1.12.35,3.16,3.16,0,0,1,.89.6,2.57,2.57,0,0,1,.59.88,3.23,3.23,0,0,1,.21,1.21v.16a3,3,0,0,1-.21,1.17,1.91,1.91,0,0,1-.59.77,2,2,0,0,1-.89.38,3,3,0,0,1-1.12,0Q45.74,95.95,45.15,95.81Zm0-1.69,1.07.23a.84.84,0,0,0,.42,0,.67.67,0,0,0,.31-.17.77.77,0,0,0,.19-.3.92.92,0,0,0,.07-.38v-.06a1.05,1.05,0,0,0-.07-.4,1.24,1.24,0,0,0-.19-.36,1,1,0,0,0-.31-.28,1.11,1.11,0,0,0-.42-.16c-.26-.06-.53-.11-.79-.18s-.18,0-.22,0-.05.09-.06.21Z"/><path class="cls-9" d="M49.81,93.88a2.88,2.88,0,0,1,.29-1.38,2.4,2.4,0,0,1,.75-.88,3,3,0,0,1,1-.48A4.86,4.86,0,0,1,53,91a4.42,4.42,0,0,1,1.07.09,2.83,2.83,0,0,1,1,.4,2.28,2.28,0,0,1,.75.82,2.66,2.66,0,0,1,.3,1.34v2.08a3.09,3.09,0,0,1-.3,1.41,2.94,2.94,0,0,1-.75,1,3.24,3.24,0,0,1-1,.58,4,4,0,0,1-1.07.23,3.71,3.71,0,0,1-1.08-.11,2.69,2.69,0,0,1-1.77-1.39,3.15,3.15,0,0,1-.29-1.4Zm4.37-.14a1.19,1.19,0,0,0-.11-.53,1.06,1.06,0,0,0-.29-.37,1.2,1.2,0,0,0-.39-.2,1.42,1.42,0,0,0-.88,0,1.25,1.25,0,0,0-.4.24,1.11,1.11,0,0,0-.28.39,1.27,1.27,0,0,0-.11.54v2.22a1.07,1.07,0,0,0,.12.51,1,1,0,0,0,.29.38,1.17,1.17,0,0,0,.82.29,1.19,1.19,0,0,0,.42-.11,1.4,1.4,0,0,0,.69-.67,1.15,1.15,0,0,0,.12-.53Z"/><path class="cls-9" d="M58.4,98.08V92.14l-1.44.2a.78.78,0,0,1-.35,0,.47.47,0,0,1-.23-.18.65.65,0,0,1-.14-.26,1.35,1.35,0,0,1,0-.29,1.55,1.55,0,0,1,0-.29,1,1,0,0,1,.14-.28.61.61,0,0,1,.23-.22,1,1,0,0,1,.35-.11c1.61-.2,3.22-.46,4.82-.72a.67.67,0,0,1,.35,0,.49.49,0,0,1,.24.15.62.62,0,0,1,.13.24.86.86,0,0,1,0,.28,1.13,1.13,0,0,1,0,.3.86.86,0,0,1-.14.29,1,1,0,0,1-.23.24.85.85,0,0,1-.35.13l-1.43.24v5.91Z"/><path class="cls-9" d="M64.3,90.27a1.24,1.24,0,0,1,.48-.66,1.6,1.6,0,0,1,.73-.3,1.23,1.23,0,0,1,.68.09.85.85,0,0,1,.47.51q1.22,3.21,2.45,6.42-1,.12-2.07.27l-.36-1.1c-.81.12-1.61.26-2.41.39l-.36,1.22-2,.37C62.69,95.06,63.49,92.65,64.3,90.27Zm.46,4L66.19,94c-.24-.74-.48-1.47-.71-2.21Z"/><path class="cls-9" d="M70.65,96.19V90.4q-.72,0-1.44.12a.77.77,0,0,1-.35,0,.53.53,0,0,1-.24-.17.75.75,0,0,1-.13-.25,1,1,0,0,1,0-.28,1,1,0,0,1,0-.29.84.84,0,0,1,.13-.27.7.7,0,0,1,.24-.21.9.9,0,0,1,.35-.11A37,37,0,0,1,74,88.74a.86.86,0,0,1,.35.08.59.59,0,0,1,.24.2.71.71,0,0,1,.13.26.9.9,0,0,1,0,.28,1,1,0,0,1,0,.28.82.82,0,0,1-.14.26.84.84,0,0,1-.23.18.91.91,0,0,1-.35.06c-.48,0-1,0-1.43,0v5.77C72,96.1,71.3,96.14,70.65,96.19Z"/><path class="cls-9" d="M74.9,91.5a2.66,2.66,0,0,1,.29-1.3,2.28,2.28,0,0,1,.75-.79,2.55,2.55,0,0,1,1-.33,3.54,3.54,0,0,1,1.08,0,4.51,4.51,0,0,1,1.08.38,4,4,0,0,1,1,.74,3.85,3.85,0,0,1,.75,1.08,3.23,3.23,0,0,1,.3,1.4v2a2.1,2.1,0,0,1-.3,1.21,1.79,1.79,0,0,1-.75.62,3,3,0,0,1-1,.2A6.39,6.39,0,0,1,78,96.64,5.3,5.3,0,0,1,77,96.33a3.69,3.69,0,0,1-1-.58,2.75,2.75,0,0,1-1-2.25Zm4.37.6a1.33,1.33,0,0,0-.1-.54,1.8,1.8,0,0,0-.29-.43,1.55,1.55,0,0,0-.84-.46,1.62,1.62,0,0,0-.44,0,.93.93,0,0,0-.39.15,1,1,0,0,0-.29.32,1.12,1.12,0,0,0-.1.5v2.1a1.12,1.12,0,0,0,.11.51,1.55,1.55,0,0,0,.3.41,1.41,1.41,0,0,0,.4.29,1.21,1.21,0,0,0,.41.15,1.48,1.48,0,0,0,.42,0,1.06,1.06,0,0,0,.4-.14.86.86,0,0,0,.3-.3.92.92,0,0,0,.11-.46Z"/><path class="cls-8" d="M45.15,95.81v2.31c-.64-.15-1.28-.34-1.93-.55V91.26a3.19,3.19,0,0,1,.07-.69.72.72,0,0,1,.24-.4.69.69,0,0,1,.45-.12,2.75,2.75,0,0,1,.71.12c.54.15,1.08.28,1.63.39a5.43,5.43,0,0,1,1.12.35,3.16,3.16,0,0,1,.89.6,2.57,2.57,0,0,1,.59.88,3.23,3.23,0,0,1,.21,1.21v.16a3,3,0,0,1-.21,1.17,1.91,1.91,0,0,1-.59.77,2,2,0,0,1-.89.38,3,3,0,0,1-1.12,0Q45.74,95.95,45.15,95.81Zm0-1.69,1.07.23a.84.84,0,0,0,.42,0,.67.67,0,0,0,.31-.17.77.77,0,0,0,.19-.3.92.92,0,0,0,.07-.38v-.06a1.05,1.05,0,0,0-.07-.4,1.24,1.24,0,0,0-.19-.36,1,1,0,0,0-.31-.28,1.11,1.11,0,0,0-.42-.16c-.26-.06-.53-.11-.79-.18s-.18,0-.22,0-.05.09-.06.21Z"/><path class="cls-8" d="M49.81,93.88a2.88,2.88,0,0,1,.29-1.38,2.4,2.4,0,0,1,.75-.88,3,3,0,0,1,1-.48A4.86,4.86,0,0,1,53,91a4.42,4.42,0,0,1,1.07.09,2.83,2.83,0,0,1,1,.4,2.28,2.28,0,0,1,.75.82,2.66,2.66,0,0,1,.3,1.34v2.08a3.09,3.09,0,0,1-.3,1.41,2.94,2.94,0,0,1-.75,1,3.24,3.24,0,0,1-1,.58,4,4,0,0,1-1.07.23,3.71,3.71,0,0,1-1.08-.11,2.69,2.69,0,0,1-1.77-1.39,3.15,3.15,0,0,1-.29-1.4Zm4.37-.14a1.19,1.19,0,0,0-.11-.53,1.06,1.06,0,0,0-.29-.37,1.2,1.2,0,0,0-.39-.2,1.42,1.42,0,0,0-.88,0,1.25,1.25,0,0,0-.4.24,1.11,1.11,0,0,0-.28.39,1.27,1.27,0,0,0-.11.54v2.22a1.07,1.07,0,0,0,.12.51,1,1,0,0,0,.29.38,1.17,1.17,0,0,0,.82.29,1.19,1.19,0,0,0,.42-.11,1.4,1.4,0,0,0,.69-.67,1.15,1.15,0,0,0,.12-.53Z"/><path class="cls-8" d="M58.4,98.08V92.14l-1.44.2a.78.78,0,0,1-.35,0,.47.47,0,0,1-.23-.18.65.65,0,0,1-.14-.26,1.35,1.35,0,0,1,0-.29,1.55,1.55,0,0,1,0-.29,1,1,0,0,1,.14-.28.61.61,0,0,1,.23-.22,1,1,0,0,1,.35-.11c1.61-.2,3.22-.46,4.82-.72a.67.67,0,0,1,.35,0,.49.49,0,0,1,.24.15.62.62,0,0,1,.13.24.86.86,0,0,1,0,.28,1.13,1.13,0,0,1,0,.3.86.86,0,0,1-.14.29,1,1,0,0,1-.23.24.85.85,0,0,1-.35.13l-1.43.24v5.91Z"/><path class="cls-8" d="M64.3,90.27a1.24,1.24,0,0,1,.48-.66,1.6,1.6,0,0,1,.73-.3,1.23,1.23,0,0,1,.68.09.85.85,0,0,1,.47.51q1.22,3.21,2.45,6.42-1,.12-2.07.27l-.36-1.1c-.81.12-1.61.26-2.41.39l-.36,1.22-2,.37C62.69,95.06,63.49,92.65,64.3,90.27Zm.46,4L66.19,94c-.24-.74-.48-1.47-.71-2.21Z"/><path class="cls-8" d="M70.65,96.19V90.4q-.72,0-1.44.12a.77.77,0,0,1-.35,0,.53.53,0,0,1-.24-.17.75.75,0,0,1-.13-.25,1,1,0,0,1,0-.28,1,1,0,0,1,0-.29.84.84,0,0,1,.13-.27.7.7,0,0,1,.24-.21.9.9,0,0,1,.35-.11A37,37,0,0,1,74,88.74a.86.86,0,0,1,.35.08.59.59,0,0,1,.24.2.71.71,0,0,1,.13.26.9.9,0,0,1,0,.28,1,1,0,0,1,0,.28.82.82,0,0,1-.14.26.84.84,0,0,1-.23.18.91.91,0,0,1-.35.06c-.48,0-1,0-1.43,0v5.77C72,96.1,71.3,96.14,70.65,96.19Z"/><path class="cls-8" d="M74.9,91.5a2.66,2.66,0,0,1,.29-1.3,2.28,2.28,0,0,1,.75-.79,2.55,2.55,0,0,1,1-.33,3.54,3.54,0,0,1,1.08,0,4.51,4.51,0,0,1,1.08.38,4,4,0,0,1,1,.74,3.85,3.85,0,0,1,.75,1.08,3.23,3.23,0,0,1,.3,1.4v2a2.1,2.1,0,0,1-.3,1.21,1.79,1.79,0,0,1-.75.62,3,3,0,0,1-1,.2A6.39,6.39,0,0,1,78,96.64,5.3,5.3,0,0,1,77,96.33a3.69,3.69,0,0,1-1-.58,2.75,2.75,0,0,1-1-2.25Zm4.37.6a1.33,1.33,0,0,0-.1-.54,1.8,1.8,0,0,0-.29-.43,1.55,1.55,0,0,0-.84-.46,1.62,1.62,0,0,0-.44,0,.93.93,0,0,0-.39.15,1,1,0,0,0-.29.32,1.12,1.12,0,0,0-.1.5v2.1a1.12,1.12,0,0,0,.11.51,1.55,1.55,0,0,0,.3.41,1.41,1.41,0,0,0,.4.29,1.21,1.21,0,0,0,.41.15,1.48,1.48,0,0,0,.42,0,1.06,1.06,0,0,0,.4-.14.86.86,0,0,0,.3-.3.92.92,0,0,0,.11-.46Z"/><path class="cls-9" d="M49.94,107.68a1.64,1.64,0,0,0,.11.63,1.56,1.56,0,0,0,.29.5,1.69,1.69,0,0,0,.41.35,1.33,1.33,0,0,0,.49.18,2.37,2.37,0,0,0,.57,0,1.83,1.83,0,0,0,.43-.08l.23-.1a1.14,1.14,0,0,1,.25-.06.86.86,0,0,1,.46.06.76.76,0,0,1,.35.34.72.72,0,0,1,.09.6,1,1,0,0,1-.33.49,2.29,2.29,0,0,1-.95.42,3.38,3.38,0,0,1-1.1,0,3.69,3.69,0,0,1-1.19-.42,3.81,3.81,0,0,1-1-.85,4.49,4.49,0,0,1-.73-1.22,4.08,4.08,0,0,1-.27-1.5v-2a2.42,2.42,0,0,1,.27-1.25,1.6,1.6,0,0,1,.73-.64,2.47,2.47,0,0,1,1-.19,6.08,6.08,0,0,1,1.19.12,5.61,5.61,0,0,1,1.1.3,2.6,2.6,0,0,1,.75.4,1.24,1.24,0,0,1,.4.55.72.72,0,0,1-.05.62.76.76,0,0,1-.38.33.72.72,0,0,1-.48,0,1.18,1.18,0,0,1-.28-.12l-.23-.14a1.7,1.7,0,0,0-.35-.14,3.16,3.16,0,0,0-.48-.11,1.35,1.35,0,0,0-.49,0,1,1,0,0,0-.41.15.77.77,0,0,0-.29.35,1.21,1.21,0,0,0-.11.57Z"/><path class="cls-9" d="M58.71,107.5c-.79.15-1.58.27-2.38.36v3.08c-.64.08-1.28.13-1.93.15v-6.78a1.08,1.08,0,0,1,.08-.42,1,1,0,0,1,.21-.31.92.92,0,0,1,.31-.2,1.53,1.53,0,0,1,.37-.08,1.11,1.11,0,0,1,.36,0,.83.83,0,0,1,.31.16.9.9,0,0,1,.29.7v2c.8-.08,1.59-.21,2.38-.35v-2a1,1,0,0,1,.08-.43,1,1,0,0,1,.21-.34,1,1,0,0,1,.31-.24,1.34,1.34,0,0,1,.36-.14,1.1,1.1,0,0,1,.36,0,.77.77,0,0,1,.31.12.78.78,0,0,1,.22.26,1,1,0,0,1,.08.4v6.66l-1.93.42Z"/><path class="cls-9" d="M61.62,103.25a1.06,1.06,0,0,1,.29-.78,1.37,1.37,0,0,1,.69-.37.91.91,0,0,1,.68.07.67.67,0,0,1,.29.65v6.62l-2,.47Z"/><path class="cls-9" d="M66.49,106.63v2.2c-.64.12-1.29.25-1.93.39v-6a2.77,2.77,0,0,1,.07-.69,1.41,1.41,0,0,1,.24-.51,1.33,1.33,0,0,1,.45-.34,2.79,2.79,0,0,1,.7-.2l1.63-.24a3.81,3.81,0,0,1,1.13,0,2.22,2.22,0,0,1,.89.42,1.91,1.91,0,0,1,.59.77,2.78,2.78,0,0,1,.21,1.13v.15a2.78,2.78,0,0,1-.21,1.13,2.17,2.17,0,0,1-.59.8,2.9,2.9,0,0,1-.89.52,4.79,4.79,0,0,1-1.13.28Zm0-1.62,1.07-.16a1.09,1.09,0,0,0,.42-.13,1.07,1.07,0,0,0,.31-.25,1.09,1.09,0,0,0,.19-.33,1.21,1.21,0,0,0,.06-.38v-.06a1,1,0,0,0-.06-.36.85.85,0,0,0-.19-.3.87.87,0,0,0-.31-.18,1,1,0,0,0-.42,0l-.8.11a.37.37,0,0,0-.21.09.3.3,0,0,0-.06.22Z"/><path class="cls-9" d="M73.09,103.42a.65.65,0,0,0,.3.49,8.79,8.79,0,0,0,.88.56l.46.28a5.59,5.59,0,0,1,.74.61,4.43,4.43,0,0,1,.57.74,3.74,3.74,0,0,1,.35.8,2.67,2.67,0,0,1,.08.84,1.17,1.17,0,0,1-.81,1.16,4.12,4.12,0,0,1-2,0,11.28,11.28,0,0,1-1.21-.32,3.05,3.05,0,0,1-1-.5,1.09,1.09,0,0,1-.22-.26,1.35,1.35,0,0,1-.14-.3.74.74,0,0,1,0-.33.8.8,0,0,1,.13-.32.59.59,0,0,1,.29-.22,1,1,0,0,1,.37-.07.79.79,0,0,1,.39.11l.28.19a1.94,1.94,0,0,0,.41.22,3.35,3.35,0,0,0,.73.2,1.14,1.14,0,0,0,.61,0c.15,0,.22-.18.23-.38a.48.48,0,0,0-.1-.27,1.67,1.67,0,0,0-.3-.29c-.13-.1-.28-.2-.44-.3s-.36-.19-.55-.29l-.24-.12-.21-.11a3.32,3.32,0,0,1-.86-.64,2.53,2.53,0,0,1-.49-.73,2,2,0,0,1-.17-.79,2.12,2.12,0,0,1,.11-.76,1.81,1.81,0,0,1,.91-1.06,2.37,2.37,0,0,1,1.63-.12,6.12,6.12,0,0,1,.64.2,3.75,3.75,0,0,1,.49.23,2.81,2.81,0,0,1,.36.24l.29.24a2.14,2.14,0,0,1,.51.69.85.85,0,0,1,.08.66.38.38,0,0,1-.32.27,1.12,1.12,0,0,1-.49-.07l-.23-.12a1.29,1.29,0,0,1-.2-.15,2.67,2.67,0,0,0-.43-.32,2.37,2.37,0,0,0-.69-.26.74.74,0,0,0-.52,0A.4.4,0,0,0,73.09,103.42Z"/><path class="cls-8" d="M49.94,107.68a1.64,1.64,0,0,0,.11.63,1.56,1.56,0,0,0,.29.5,1.69,1.69,0,0,0,.41.35,1.33,1.33,0,0,0,.49.18,2.37,2.37,0,0,0,.57,0,1.83,1.83,0,0,0,.43-.08l.23-.1a1.14,1.14,0,0,1,.25-.06.86.86,0,0,1,.46.06.76.76,0,0,1,.35.34.72.72,0,0,1,.09.6,1,1,0,0,1-.33.49,2.29,2.29,0,0,1-.95.42,3.38,3.38,0,0,1-1.1,0,3.69,3.69,0,0,1-1.19-.42,3.81,3.81,0,0,1-1-.85,4.49,4.49,0,0,1-.73-1.22,4.08,4.08,0,0,1-.27-1.5v-2a2.42,2.42,0,0,1,.27-1.25,1.6,1.6,0,0,1,.73-.64,2.47,2.47,0,0,1,1-.19,6.08,6.08,0,0,1,1.19.12,5.61,5.61,0,0,1,1.1.3,2.6,2.6,0,0,1,.75.4,1.24,1.24,0,0,1,.4.55.72.72,0,0,1-.05.62.76.76,0,0,1-.38.33.72.72,0,0,1-.48,0,1.18,1.18,0,0,1-.28-.12l-.23-.14a1.7,1.7,0,0,0-.35-.14,3.16,3.16,0,0,0-.48-.11,1.35,1.35,0,0,0-.49,0,1,1,0,0,0-.41.15.77.77,0,0,0-.29.35,1.21,1.21,0,0,0-.11.57Z"/><path class="cls-8" d="M58.71,107.5c-.79.15-1.58.27-2.38.36v3.08c-.64.08-1.28.13-1.93.15v-6.78a1.08,1.08,0,0,1,.08-.42,1,1,0,0,1,.21-.31.92.92,0,0,1,.31-.2,1.53,1.53,0,0,1,.37-.08,1.11,1.11,0,0,1,.36,0,.83.83,0,0,1,.31.16.9.9,0,0,1,.29.7v2c.8-.08,1.59-.21,2.38-.35v-2a1,1,0,0,1,.08-.43,1,1,0,0,1,.21-.34,1,1,0,0,1,.31-.24,1.34,1.34,0,0,1,.36-.14,1.1,1.1,0,0,1,.36,0,.77.77,0,0,1,.31.12.78.78,0,0,1,.22.26,1,1,0,0,1,.08.4v6.66l-1.93.42Z"/><path class="cls-8" d="M61.62,103.25a1.06,1.06,0,0,1,.29-.78,1.37,1.37,0,0,1,.69-.37.91.91,0,0,1,.68.07.67.67,0,0,1,.29.65v6.62l-2,.47Z"/><path class="cls-8" d="M66.49,106.63v2.2c-.64.12-1.29.25-1.93.39v-6a2.77,2.77,0,0,1,.07-.69,1.41,1.41,0,0,1,.24-.51,1.33,1.33,0,0,1,.45-.34,2.79,2.79,0,0,1,.7-.2l1.63-.24a3.81,3.81,0,0,1,1.13,0,2.22,2.22,0,0,1,.89.42,1.91,1.91,0,0,1,.59.77,2.78,2.78,0,0,1,.21,1.13v.15a2.78,2.78,0,0,1-.21,1.13,2.17,2.17,0,0,1-.59.8,2.9,2.9,0,0,1-.89.52,4.79,4.79,0,0,1-1.13.28Zm0-1.62,1.07-.16a1.09,1.09,0,0,0,.42-.13,1.07,1.07,0,0,0,.31-.25,1.09,1.09,0,0,0,.19-.33,1.21,1.21,0,0,0,.06-.38v-.06a1,1,0,0,0-.06-.36.85.85,0,0,0-.19-.3.87.87,0,0,0-.31-.18,1,1,0,0,0-.42,0l-.8.11a.37.37,0,0,0-.21.09.3.3,0,0,0-.06.22Z"/><path class="cls-8" d="M73.09,103.42a.65.65,0,0,0,.3.49,8.79,8.79,0,0,0,.88.56l.46.28a5.59,5.59,0,0,1,.74.61,4.43,4.43,0,0,1,.57.74,3.74,3.74,0,0,1,.35.8,2.67,2.67,0,0,1,.08.84,1.17,1.17,0,0,1-.81,1.16,4.12,4.12,0,0,1-2,0,11.28,11.28,0,0,1-1.21-.32,3.05,3.05,0,0,1-1-.5,1.09,1.09,0,0,1-.22-.26,1.35,1.35,0,0,1-.14-.3.74.74,0,0,1,0-.33.8.8,0,0,1,.13-.32.59.59,0,0,1,.29-.22,1,1,0,0,1,.37-.07.79.79,0,0,1,.39.11l.28.19a1.94,1.94,0,0,0,.41.22,3.35,3.35,0,0,0,.73.2,1.14,1.14,0,0,0,.61,0c.15,0,.22-.18.23-.38a.48.48,0,0,0-.1-.27,1.67,1.67,0,0,0-.3-.29c-.13-.1-.28-.2-.44-.3s-.36-.19-.55-.29l-.24-.12-.21-.11a3.32,3.32,0,0,1-.86-.64,2.53,2.53,0,0,1-.49-.73,2,2,0,0,1-.17-.79,2.12,2.12,0,0,1,.11-.76,1.81,1.81,0,0,1,.91-1.06,2.37,2.37,0,0,1,1.63-.12,6.12,6.12,0,0,1,.64.2,3.75,3.75,0,0,1,.49.23,2.81,2.81,0,0,1,.36.24l.29.24a2.14,2.14,0,0,1,.51.69.85.85,0,0,1,.08.66.38.38,0,0,1-.32.27,1.12,1.12,0,0,1-.49-.07l-.23-.12a1.29,1.29,0,0,1-.2-.15,2.67,2.67,0,0,0-.43-.32,2.37,2.37,0,0,0-.69-.26.74.74,0,0,0-.52,0A.4.4,0,0,0,73.09,103.42Z"/><path class="cls-6" d="M39.42,113.73c16.2,6.14,32.39-6.14,48.58,0,0,0-2.38.52-2.38,1.15S88,117.57,88,117.57c-16.19-6.14-32.38,6.13-48.58,0Z"/><line class="cls-10" x1="31.35" y1="77.02" x2="93.62" y2="77.02"/><line class="cls-10" x1="31.35" y1="79.13" x2="93.62" y2="79.13"/></g></svg>