<svg id="레이어_1" data-name="레이어 1" xmlns="http://www.w3.org/2000/svg" xmlns:xlink="http://www.w3.org/1999/xlink" viewBox="0 0 124 124"><defs><style>.cls-1{fill:none;}.cls-2{fill:#ed7c9c;}.cls-3{fill:#bae2f4;}.cls-4{fill:#3e75ba;}.cls-5{fill:#f5d12b;}.cls-6{fill:#5fa1d8;}.cls-7{fill:#92c3e6;}.cls-8{fill:#d8b11b;}.cls-9{fill:#7ec1eb;}.cls-10{fill:#f9f1a9;}.cls-11,.cls-12{fill:#f6e36e;}.cls-11{stroke:#f6e36e;stroke-linecap:round;stroke-linejoin:round;stroke-width:0.5px;}.cls-13{fill:#a5d3a1;}.cls-14{fill:#c4b0d4;}.cls-15{fill:#fff;}.cls-16{fill:#fff9b1;}.cls-17{clip-path:url(#clip-path);}</style><clipPath id="clip-path"><path class="cls-1" d="M38.37,61.2v9.24L25.63,65.26a29.68,29.68,0,0,1,0-9.25Zm18.85,7.67L45.58,64.13v9.25l11.64,4.73Zm0,9.24v35.74l15.7-5.39V72.72ZM95.84,64.86l-15.7,5.39V106l15.7-5.39Zm-38.62,4a49.65,49.65,0,0,0,0,9.24l15.7-5.38V63.48ZM97.74,55l-17.6,6v9.25l17.6-6A33.9,33.9,0,0,0,97.74,55Zm-71,10.74v35.73l11.64,4.74V70.44Zm30.49,12.4L45.58,73.38v35.73l11.64,4.74ZM25.63,56,38.37,61.2l15.7-5.39L41.33,50.63Zm40.51-13.9-17.6,6,12.75,5.18,17.6-6Zm20,8.12-17.6,6L80.14,61l17.6-6ZM45.58,64.13l11.64,4.74,15.7-5.39L61.29,58.75Z"/></clipPath></defs><rect class="cls-2" width="124" height="124"/><polygon class="cls-3" points="57.18 78.12 99.17 63.71 99.17 102.56 57.18 116.97 57.18 78.12"/><path class="cls-4" d="M22.84,54.1a32.39,32.39,0,0,0,0,10.05l13.85,5.63V59.73Z"/><polygon class="cls-4" points="57.19 68.07 44.53 62.93 44.53 72.98 57.19 78.12 57.19 68.07"/><polygon class="cls-3" points="57.18 78.12 57.18 116.97 74.25 111.11 74.25 72.26 57.18 78.12"/><polygon class="cls-3" points="99.17 63.71 82.1 69.57 82.1 108.42 99.17 102.56 99.17 63.71"/><polygon class="cls-5" points="74.25 62.22 74.25 72.26 74.25 72.27 74.25 111.11 82.1 108.42 82.1 69.58 82.1 69.57 82.1 59.53 74.25 62.22"/><path class="cls-6" d="M57.18,68.07a54.44,54.44,0,0,0,0,10.05l17.07-5.85v-10Z"/><path class="cls-6" d="M101.23,53,82.1,59.53v10L101.23,63A36.51,36.51,0,0,0,101.23,53Z"/><polygon class="cls-7" points="24.04 64.64 24.04 103.48 36.69 108.63 36.69 69.78 24.04 64.64"/><polygon class="cls-7" points="57.19 78.12 44.53 72.98 44.53 111.82 57.19 116.97 57.19 78.12"/><polygon class="cls-8" points="36.69 59.73 36.69 69.78 36.69 69.78 36.69 108.63 44.53 111.82 44.53 72.98 44.53 72.98 44.53 62.93 36.69 59.73"/><polygon class="cls-9" points="22.84 54.1 36.69 59.73 53.76 53.88 39.91 48.24 22.84 54.1"/><polygon class="cls-9" points="66.88 38.99 47.75 45.55 61.6 51.19 80.73 44.63 66.88 38.99"/><polygon class="cls-9" points="88.58 47.82 69.45 54.38 82.1 59.53 101.23 52.96 88.58 47.82"/><polygon class="cls-9" points="44.53 62.93 57.18 68.07 74.25 62.22 61.6 57.07 44.53 62.93"/><polygon class="cls-10" points="88.58 47.82 80.73 44.63 61.6 51.19 47.75 45.55 39.91 48.24 53.76 53.88 36.69 59.73 44.53 62.93 61.6 57.07 74.25 62.22 82.1 59.53 69.45 54.38 88.58 47.82"/><path class="cls-11" d="M67.94,53.75s2.7-3.24,5.45-3.52c2.41-.24,3.85-2.5,5.22-1.46A8.9,8.9,0,0,1,81.18,57c-.58,2.47-8.46,6.81-12.56,4.67"/><path class="cls-11" d="M61.44,50a25.34,25.34,0,0,1-1.83-4.52C59,43.27,56,41.53,52.82,41.53c-.76,0-.52,1.28-4.58,2s-4.8,2.45-4.8,4a3.31,3.31,0,0,1,4.43-2.59c3.73,1.13,4.59,1.46,5.93,4.64a10,10,0,0,0,3.93,4.59"/><path class="cls-5" d="M57.86,55.09a1.08,1.08,0,0,1-.33-1.42c.78-1.41,2.54-4.05,4.71-3.76,1.52.2,1.12,1.32,2.91,1.4s2.46.86.69,1.7-3.77,1.16-3.91,3C61.93,56,60.33,56.78,57.86,55.09Z"/><path class="cls-5" d="M67.94,53.75l-.82.46c-3.75,1.95-5.1,1.28-5.1,1.28,0,2.14,5.65,6.66,8.16,6.69s4.46-1.62,4.46-4.83V56.5Z"/><path class="cls-10" d="M72.78,51.52c-1.82-.76-1.9.5-4.84,2.23l1.53.63,4.69-1.65A2.53,2.53,0,0,0,72.78,51.52Z"/><path class="cls-9" d="M74.16,52.73l-4.69,1.65,5.17,2.12A8.56,8.56,0,0,0,74.16,52.73Z"/><path class="cls-5" d="M54.19,50.64a35.44,35.44,0,0,0-1.74-3.19L45.6,44.7a2.19,2.19,0,0,0-1.68,1.13c-1.38,2.57-.45,4.08,2.57,6S57.2,54,57.2,54A13.67,13.67,0,0,1,54.19,50.64Z"/><path class="cls-9" d="M51.34,46.41c-1.08-.66-3.81-2-5.74-1.71l6.85,2.75A4,4,0,0,0,51.34,46.41Z"/><path class="cls-12" d="M66.66,52.54a13.64,13.64,0,0,0,4.25-1.21s-3.44,3.35-6.66,4.08a4.67,4.67,0,0,1-2.18,0s.37-1,2.24-1.81Z"/><path class="cls-13" d="M90.69,34.08c-1.54,1.29-3.07,3.83-4.61,6a8.92,8.92,0,0,1-2-1.74c1.54-1.44,3.07-4,4.61-6A10.9,10.9,0,0,1,90.69,34.08Z"/><path class="cls-14" d="M57.74,14.37c.2,1.9.39,3.81.59,5.76-1,.16-2,2-3,2.76-.19-2-.39-4-.59-6.16C55.73,16.69,56.74,15,57.74,14.37Z"/><path class="cls-15" d="M74.22,12.86c1.65.64,3.31.62,5,1.78a24.35,24.35,0,0,0-1.8,2.8c-1.65-.47-3.3-.43-4.95-1.71C73,14.89,73.62,13.9,74.22,12.86Z"/><path class="cls-16" d="M35.93,23.66A23,23,0,0,1,39,27.47a11,11,0,0,0-2.61,2.72,15.69,15.69,0,0,1-3.09-3.94A11.17,11.17,0,0,0,35.93,23.66Z"/><rect class="cls-15" x="50.22" y="33.54" width="5.64" height="3.45" transform="translate(23.18 91.53) rotate(-95.67)"/><g class="cls-17"><path class="cls-15" d="M79,127.62a2.15,2.15,0,0,1-.12-3h0a2.14,2.14,0,0,1,3-.12h0a2.15,2.15,0,0,1,.13,3h0a2.18,2.18,0,0,1-1.57.69h0A2.13,2.13,0,0,1,79,127.62Z"/><path class="cls-15" d="M86.3,119.75a2.14,2.14,0,0,1-.12-3h0a2.14,2.14,0,0,1,3-.13h0a2.15,2.15,0,0,1,.12,3h0a2.11,2.11,0,0,1-1.57.69h0A2.12,2.12,0,0,1,86.3,119.75Z"/><path class="cls-15" d="M93.57,111.88a2.14,2.14,0,0,1-.13-3h0a2.16,2.16,0,0,1,3-.13h0a2.14,2.14,0,0,1,.12,3h0a2.11,2.11,0,0,1-1.57.69h0A2.13,2.13,0,0,1,93.57,111.88Z"/><path class="cls-15" d="M100.83,104a2.16,2.16,0,0,1-.12-3h0a2.15,2.15,0,0,1,3-.12h0a2.14,2.14,0,0,1,.12,3h0a2.14,2.14,0,0,1-1.57.7h0A2.18,2.18,0,0,1,100.83,104Z"/><path class="cls-15" d="M108.09,96.15a2.15,2.15,0,0,1-.11-3h0a2.15,2.15,0,0,1,3-.12h0a2.15,2.15,0,0,1,.11,3h0a2.12,2.12,0,0,1-1.57.68h0A2.21,2.21,0,0,1,108.09,96.15Z"/><path class="cls-15" d="M115.37,88.28a2.15,2.15,0,0,1-.13-3h0a2.14,2.14,0,0,1,3-.12h0a2.15,2.15,0,0,1,.12,3h0a2.12,2.12,0,0,1-1.58.68h0A2.09,2.09,0,0,1,115.37,88.28Z"/><path class="cls-15" d="M122.63,80.4a2.14,2.14,0,0,1-.12-3h0a2.14,2.14,0,0,1,3-.12h0a2.14,2.14,0,0,1,.13,3h0a2.15,2.15,0,0,1-1.58.68h0A2.06,2.06,0,0,1,122.63,80.4Z"/><path class="cls-15" d="M70.34,126a2.13,2.13,0,0,1-.11-3h0a2.14,2.14,0,0,1,3-.12h0a2.14,2.14,0,0,1,.11,3h0a2.1,2.1,0,0,1-1.57.7h0A2.09,2.09,0,0,1,70.34,126Z"/><path class="cls-15" d="M77.6,118.11a2.15,2.15,0,0,1-.11-3h0a2.14,2.14,0,0,1,3-.12h0a2.13,2.13,0,0,1,.12,3h0a2.14,2.14,0,0,1-1.57.7h0A2.17,2.17,0,0,1,77.6,118.11Z"/><path class="cls-15" d="M84.88,110.24a2.13,2.13,0,0,1-.13-3h0a2.15,2.15,0,0,1,3-.12h0a2.15,2.15,0,0,1,.12,3h0a2.17,2.17,0,0,1-1.58.69h0A2.1,2.1,0,0,1,84.88,110.24Z"/><path class="cls-15" d="M92.14,102.37a2.13,2.13,0,0,1-.12-3h0a2.13,2.13,0,0,1,3-.12h0a2.15,2.15,0,0,1,.12,3h0a2.13,2.13,0,0,1-1.58.69h0A2.1,2.1,0,0,1,92.14,102.37Z"/><path class="cls-15" d="M99.4,94.51a2.15,2.15,0,0,1-.12-3h0a2.14,2.14,0,0,1,3-.12h0a2.13,2.13,0,0,1,.13,3h0a2.16,2.16,0,0,1-1.58.7h0A2.19,2.19,0,0,1,99.4,94.51Z"/><path class="cls-15" d="M106.67,86.64a2.14,2.14,0,0,1-.13-3h0a2.15,2.15,0,0,1,3-.12h0a2.14,2.14,0,0,1,.12,3h0a2.13,2.13,0,0,1-1.57.69h0A2.16,2.16,0,0,1,106.67,86.64Z"/><path class="cls-15" d="M113.93,78.77a2.15,2.15,0,0,1-.12-3h0a2.14,2.14,0,0,1,3-.11h0a2.15,2.15,0,0,1,.12,3h0a2.15,2.15,0,0,1-1.57.68h0A2.16,2.16,0,0,1,113.93,78.77Z"/><path class="cls-15" d="M121.19,70.89a2.14,2.14,0,0,1-.12-3h0a2.13,2.13,0,0,1,3-.12h0a2.13,2.13,0,0,1,.13,3h0a2.12,2.12,0,0,1-1.57.68h0A2.11,2.11,0,0,1,121.19,70.89Z"/><path class="cls-15" d="M61.09,124.55a2.15,2.15,0,0,1-.13-3h0a2.15,2.15,0,0,1,3-.12h0a2.14,2.14,0,0,1,.12,3h0a2.14,2.14,0,0,1-1.57.7h0A2.18,2.18,0,0,1,61.09,124.55Z"/><path class="cls-15" d="M68.35,116.68a2.16,2.16,0,0,1-.13-3h0a2.14,2.14,0,0,1,3-.12h0a2.13,2.13,0,0,1,.12,3h0a2.09,2.09,0,0,1-1.56.68h0A2.12,2.12,0,0,1,68.35,116.68Z"/><path class="cls-15" d="M75.61,108.81a2.15,2.15,0,0,1-.12-3h0a2.16,2.16,0,0,1,3-.11h0a2.13,2.13,0,0,1,.11,3h0a2.1,2.1,0,0,1-1.57.68h0A2.14,2.14,0,0,1,75.61,108.81Z"/><path class="cls-15" d="M82.88,100.93a2.13,2.13,0,0,1-.12-3h0a2.15,2.15,0,0,1,3-.11h0a2.13,2.13,0,0,1,.11,3h0a2.09,2.09,0,0,1-1.57.69h0A2.11,2.11,0,0,1,82.88,100.93Z"/><path class="cls-15" d="M90.14,93.07A2.15,2.15,0,0,1,90,90h0a2.14,2.14,0,0,1,3-.12h0a2.17,2.17,0,0,1,.13,3h0a2.17,2.17,0,0,1-1.58.68h0A2.15,2.15,0,0,1,90.14,93.07Z"/><path class="cls-15" d="M97.41,85.2a2.14,2.14,0,0,1-.12-3h0a2.15,2.15,0,0,1,3-.12h0a2.15,2.15,0,0,1,.12,3h0a2.15,2.15,0,0,1-1.58.69h0A2.08,2.08,0,0,1,97.41,85.2Z"/><path class="cls-15" d="M104.68,77.33a2.14,2.14,0,0,1-.13-3h0a2.15,2.15,0,0,1,3-.11h0a2.14,2.14,0,0,1,.12,3h0a2.13,2.13,0,0,1-1.58.69h0A2.06,2.06,0,0,1,104.68,77.33Z"/><path class="cls-15" d="M111.94,69.46a2.13,2.13,0,0,1-.12-3h0a2.13,2.13,0,0,1,3-.12h0a2.14,2.14,0,0,1,.13,3h0a2.17,2.17,0,0,1-1.57.7h0A2.14,2.14,0,0,1,111.94,69.46Z"/><path class="cls-15" d="M119.2,61.6a2.15,2.15,0,0,1-.12-3h0a2.15,2.15,0,0,1,3-.12h0a2.15,2.15,0,0,1,.12,3h0a2.16,2.16,0,0,1-1.57.69h0A2.22,2.22,0,0,1,119.2,61.6Z"/><path class="cls-15" d="M52.38,122.9a2.13,2.13,0,0,1-.11-3h0a2.15,2.15,0,0,1,3-.12h0a2.13,2.13,0,0,1,.11,3h0a2.09,2.09,0,0,1-1.57.69h0A2.15,2.15,0,0,1,52.38,122.9Z"/><path class="cls-15" d="M59.65,115a2.15,2.15,0,0,1-.12-3h0a2.15,2.15,0,0,1,3-.12h0a2.14,2.14,0,0,1,.12,3h0a2.14,2.14,0,0,1-1.58.7h0A2.19,2.19,0,0,1,59.65,115Z"/><path class="cls-15" d="M66.92,107.17a2.14,2.14,0,0,1-.12-3h0a2.14,2.14,0,0,1,3-.12h0a2.14,2.14,0,0,1,.13,3h0a2.19,2.19,0,0,1-1.58.68h0A2.15,2.15,0,0,1,66.92,107.17Z"/><path class="cls-15" d="M74.18,99.3a2.15,2.15,0,0,1-.12-3h0a2.14,2.14,0,0,1,3-.12h0a2.15,2.15,0,0,1,.12,3h0a2.12,2.12,0,0,1-1.58.68h0A2.12,2.12,0,0,1,74.18,99.3Z"/><path class="cls-15" d="M81.45,91.42a2.14,2.14,0,0,1-.12-3h0a2.13,2.13,0,0,1,3-.1h0a2.13,2.13,0,0,1,.12,3h0a2.12,2.12,0,0,1-1.58.68h0A2.08,2.08,0,0,1,81.45,91.42Z"/><path class="cls-15" d="M88.71,83.55a2.13,2.13,0,0,1-.12-3h0a2.14,2.14,0,0,1,3-.12h0a2.15,2.15,0,0,1,.13,3h0a2.17,2.17,0,0,1-1.57.68h0A2.12,2.12,0,0,1,88.71,83.55Z"/><path class="cls-15" d="M96,75.69a2.15,2.15,0,0,1-.12-3h0a2.15,2.15,0,0,1,3-.12h0a2.14,2.14,0,0,1,.12,3h0a2.14,2.14,0,0,1-1.57.7h0A2.15,2.15,0,0,1,96,75.69Z"/><path class="cls-15" d="M103.23,67.82a2.17,2.17,0,0,1-.12-3h0a2.15,2.15,0,0,1,3-.12h0a2.14,2.14,0,0,1,.12,3h0a2.11,2.11,0,0,1-1.57.69h0A2.12,2.12,0,0,1,103.23,67.82Z"/><path class="cls-15" d="M110.5,60a2.13,2.13,0,0,1-.11-3h0a2.13,2.13,0,0,1,3-.13h0a2.14,2.14,0,0,1,.12,3h0a2.11,2.11,0,0,1-1.57.69h0A2.17,2.17,0,0,1,110.5,60Z"/><path class="cls-15" d="M117.76,52.09a2.15,2.15,0,0,1-.11-3h0a2.15,2.15,0,0,1,3-.12h0a2.14,2.14,0,0,1,.12,3h0a2.16,2.16,0,0,1-1.58.7h0A2.22,2.22,0,0,1,117.76,52.09Z"/><path class="cls-15" d="M43.13,121.47a2.15,2.15,0,0,1-.12-3h0a2.14,2.14,0,0,1,3-.11h0a2.13,2.13,0,0,1,.13,3h0a2.13,2.13,0,0,1-1.57.69h0A2.15,2.15,0,0,1,43.13,121.47Z"/><path class="cls-15" d="M50.39,113.6a2.16,2.16,0,0,1-.12-3h0a2.15,2.15,0,0,1,3-.12h0a2.15,2.15,0,0,1,.12,3h0a2.14,2.14,0,0,1-1.57.68h0A2.17,2.17,0,0,1,50.39,113.6Z"/><path class="cls-15" d="M57.66,105.73a2.13,2.13,0,0,1-.11-3h0a2.13,2.13,0,0,1,3-.13h0a2.15,2.15,0,0,1,.11,3h0a2.09,2.09,0,0,1-1.56.69h0A2.09,2.09,0,0,1,57.66,105.73Z"/><path class="cls-15" d="M64.92,97.86a2.13,2.13,0,0,1-.11-3h0a2.15,2.15,0,0,1,3-.12h0a2.13,2.13,0,0,1,.11,3h0a2.12,2.12,0,0,1-1.57.7h0A2.13,2.13,0,0,1,64.92,97.86Z"/><path class="cls-15" d="M72.2,90a2.13,2.13,0,0,1-.13-3h0a2.15,2.15,0,0,1,3-.12h0a2.14,2.14,0,0,1,.12,3h0a2.14,2.14,0,0,1-1.58.7h0A2.15,2.15,0,0,1,72.2,90Z"/><path class="cls-15" d="M79.46,82.13a2.16,2.16,0,0,1-.13-3h0a2.15,2.15,0,0,1,3-.12h0a2.15,2.15,0,0,1,.13,3h0a2.21,2.21,0,0,1-1.59.69h0A2.15,2.15,0,0,1,79.46,82.13Z"/><path class="cls-15" d="M86.72,74.26a2.15,2.15,0,0,1-.12-3h0a2.15,2.15,0,0,1,3-.12h0a2.15,2.15,0,0,1,.12,3h0a2.14,2.14,0,0,1-1.58.68h0A2.13,2.13,0,0,1,86.72,74.26Z"/><path class="cls-15" d="M101.25,58.52a2.15,2.15,0,0,1-.12-3h0a2.14,2.14,0,0,1,3-.11h0a2.14,2.14,0,0,1,.13,3h0a2.16,2.16,0,0,1-1.57.69h0A2.13,2.13,0,0,1,101.25,58.52Z"/><path class="cls-15" d="M108.51,50.65a2.15,2.15,0,0,1-.12-3h0a2.14,2.14,0,0,1,3-.12h0a2.13,2.13,0,0,1,.13,3h0a2.16,2.16,0,0,1-1.57.69h0A2.11,2.11,0,0,1,108.51,50.65Z"/><path class="cls-15" d="M34.43,119.83a2.15,2.15,0,0,1-.11-3h0a2.13,2.13,0,0,1,3-.12h0a2.17,2.17,0,0,1,.13,3h0a2.16,2.16,0,0,1-1.59.68h0A2.13,2.13,0,0,1,34.43,119.83Z"/><path class="cls-15" d="M41.7,112a2.14,2.14,0,0,1-.12-3h0a2.15,2.15,0,0,1,3-.11h0a2.13,2.13,0,0,1,.12,3h0a2.13,2.13,0,0,1-1.58.69h0A2.13,2.13,0,0,1,41.7,112Z"/><path class="cls-15" d="M49,104.09a2.13,2.13,0,0,1-.13-3h0a2.15,2.15,0,0,1,3-.12h0a2.14,2.14,0,0,1,.12,3h0a2.11,2.11,0,0,1-1.58.7h0A2.1,2.1,0,0,1,49,104.09Z"/><path class="cls-15" d="M56.23,96.22a2.15,2.15,0,0,1-.13-3h0a2.15,2.15,0,0,1,3-.12h0a2.15,2.15,0,0,1,.13,3h0a2.21,2.21,0,0,1-1.59.69h0A2.1,2.1,0,0,1,56.23,96.22Z"/><path class="cls-15" d="M63.49,88.35a2.15,2.15,0,0,1-.12-3h0a2.15,2.15,0,0,1,3-.12h0a2.15,2.15,0,0,1,.12,3h0a2.13,2.13,0,0,1-1.57.69h0A2.11,2.11,0,0,1,63.49,88.35Z"/><path class="cls-15" d="M70.76,80.48a2.14,2.14,0,0,1-.13-3h0a2.15,2.15,0,0,1,3-.12h0a2.13,2.13,0,0,1,.12,3h0a2.13,2.13,0,0,1-1.57.69h0A2.13,2.13,0,0,1,70.76,80.48Z"/><path class="cls-15" d="M99.82,49a2.14,2.14,0,0,1-.12-3h0a2.15,2.15,0,0,1,3-.13h0a2.15,2.15,0,0,1,.13,3h0a2.16,2.16,0,0,1-1.58.69h0A2.11,2.11,0,0,1,99.82,49Z"/><path class="cls-15" d="M114.35,33.27a2.15,2.15,0,0,1-.12-3h0a2.13,2.13,0,0,1,3-.12h0a2.15,2.15,0,0,1,.12,3h0a2.13,2.13,0,0,1-1.58.69h0A2.08,2.08,0,0,1,114.35,33.27Z"/><path class="cls-15" d="M17.91,126.26a2.14,2.14,0,0,1-.12-3h0a2.15,2.15,0,0,1,3-.13h0a2.15,2.15,0,0,1,.12,3h0a2.13,2.13,0,0,1-1.57.69h0A2.12,2.12,0,0,1,17.91,126.26Z"/><path class="cls-15" d="M25.18,118.4a2.15,2.15,0,0,1-.12-3h0a2.14,2.14,0,0,1,3-.12h0a2.14,2.14,0,0,1,.12,3h0a2.12,2.12,0,0,1-1.57.7h0A2.13,2.13,0,0,1,25.18,118.4Z"/><path class="cls-15" d="M32.44,110.53a2.15,2.15,0,0,1-.12-3h0a2.14,2.14,0,0,1,3-.12h0a2.13,2.13,0,0,1,.13,3h0a2.16,2.16,0,0,1-1.57.69h0A2.2,2.2,0,0,1,32.44,110.53Z"/><path class="cls-15" d="M39.71,102.66a2.14,2.14,0,0,1-.12-3h0a2.15,2.15,0,0,1,3-.12h0a2.15,2.15,0,0,1,.11,3h0a2.13,2.13,0,0,1-1.57.69h0A2.18,2.18,0,0,1,39.71,102.66Z"/><path class="cls-15" d="M47,94.79a2.14,2.14,0,0,1-.12-3h0a2.15,2.15,0,0,1,3-.13h0a2.17,2.17,0,0,1,.13,3h0a2.16,2.16,0,0,1-1.59.68h0A2.13,2.13,0,0,1,47,94.79Z"/><path class="cls-15" d="M54.24,86.93a2.14,2.14,0,0,1-.12-3h0a2.14,2.14,0,0,1,3-.12h0a2.13,2.13,0,0,1,.12,3h0a2.15,2.15,0,0,1-1.58.69h0A2.15,2.15,0,0,1,54.24,86.93Z"/><path class="cls-15" d="M23.75,108.88a2.11,2.11,0,0,1-.12-3h0a2.14,2.14,0,0,1,3-.13h0a2.16,2.16,0,0,1,.13,3h0a2.17,2.17,0,0,1-1.58.7h0A2.07,2.07,0,0,1,23.75,108.88Z"/><path class="cls-15" d="M31,101a2.15,2.15,0,0,1-.12-3h0a2.15,2.15,0,0,1,3-.12h0a2.13,2.13,0,0,1,.12,3h0a2.16,2.16,0,0,1-1.58.7h0A2.18,2.18,0,0,1,31,101Z"/><path class="cls-15" d="M38.27,93.15a2.15,2.15,0,0,1-.12-3h0a2.15,2.15,0,0,1,3-.12h0a2.14,2.14,0,0,1,.12,3h0a2.14,2.14,0,0,1-1.58.7h0A2.21,2.21,0,0,1,38.27,93.15Z"/><path class="cls-15" d="M45.54,85.28a2.15,2.15,0,0,1-.13-3h0a2.14,2.14,0,0,1,3-.12h0a2.15,2.15,0,0,1,.12,3h0a2.15,2.15,0,0,1-1.57.68h0A2.12,2.12,0,0,1,45.54,85.28Z"/><path class="cls-15" d="M7.22,115.33a2.15,2.15,0,0,1-.12-3h0a2.15,2.15,0,0,1,3-.12h0a2.13,2.13,0,0,1,.12,3h0a2.13,2.13,0,0,1-1.57.69h0A2.19,2.19,0,0,1,7.22,115.33Z"/><path class="cls-15" d="M14.49,107.46a2.16,2.16,0,0,1-.13-3h0a2.15,2.15,0,0,1,3-.12h0a2.13,2.13,0,0,1,.11,3h0a2.09,2.09,0,0,1-1.57.69h0A2.16,2.16,0,0,1,14.49,107.46Z"/><path class="cls-15" d="M21.75,99.58a2.15,2.15,0,0,1-.11-3h0a2.13,2.13,0,0,1,3-.11h0a2.14,2.14,0,0,1,.12,3h0a2.14,2.14,0,0,1-1.57.68h0A2.15,2.15,0,0,1,21.75,99.58Z"/><path class="cls-15" d="M29,91.71a2.13,2.13,0,0,1-.12-3h0a2.14,2.14,0,0,1,3-.13h0a2.15,2.15,0,0,1,.12,3h0a2.09,2.09,0,0,1-1.58.69h0A2.08,2.08,0,0,1,29,91.71Z"/><path class="cls-15" d="M36.29,83.85a2.14,2.14,0,0,1-.13-3h0a2.15,2.15,0,0,1,3-.12h0a2.14,2.14,0,0,1,.12,3h0a2.14,2.14,0,0,1-1.58.7h0A2.1,2.1,0,0,1,36.29,83.85Z"/><path class="cls-15" d="M13.06,97.93a2.11,2.11,0,0,1-.12-3h0a2.13,2.13,0,0,1,3-.12h0a2.14,2.14,0,0,1,.12,3h0a2.12,2.12,0,0,1-1.58.68h0A2.06,2.06,0,0,1,13.06,97.93Z"/><path class="cls-15" d="M20.32,90.07a2.15,2.15,0,0,1-.12-3h0a2.15,2.15,0,0,1,3-.11h0a2.15,2.15,0,0,1,.12,3h0a2.17,2.17,0,0,1-1.57.68h0A2.13,2.13,0,0,1,20.32,90.07Z"/><path class="cls-15" d="M27.58,82.2a2.15,2.15,0,0,1-.12-3h0a2.16,2.16,0,0,1,3-.12h0a2.15,2.15,0,0,1,.12,3h0a2.16,2.16,0,0,1-1.57.69h0A2.17,2.17,0,0,1,27.58,82.2Z"/><path class="cls-15" d="M34.85,74.33a2.13,2.13,0,0,1-.13-3h0a2.15,2.15,0,0,1,3-.13h0a2.14,2.14,0,0,1,.12,3h0a2.11,2.11,0,0,1-1.57.69h0A2.08,2.08,0,0,1,34.85,74.33Z"/><path class="cls-15" d="M-3.47,104.37a2.13,2.13,0,0,1-.11-3h0a2.15,2.15,0,0,1,3-.12h0a2.14,2.14,0,0,1,.11,3h0A2.12,2.12,0,0,1-2,105h0A2.13,2.13,0,0,1-3.47,104.37Z"/><path class="cls-15" d="M3.79,96.51a2.15,2.15,0,0,1-.11-3h0a2.15,2.15,0,0,1,3-.12h0a2.15,2.15,0,0,1,.11,3h0a2.13,2.13,0,0,1-1.57.69h0A2.19,2.19,0,0,1,3.79,96.51Z"/><path class="cls-15" d="M11.07,88.64a2.13,2.13,0,0,1-.12-3h0a2.13,2.13,0,0,1,3-.13h0a2.16,2.16,0,0,1,.13,3h0a2.2,2.2,0,0,1-1.58.69h0A2.06,2.06,0,0,1,11.07,88.64Z"/><path class="cls-15" d="M18.33,80.77a2.14,2.14,0,0,1-.12-3h0a2.14,2.14,0,0,1,3-.13h0a2.14,2.14,0,0,1,.13,3h0a2.14,2.14,0,0,1-1.58.7h0A2.14,2.14,0,0,1,18.33,80.77Z"/><path class="cls-15" d="M25.6,72.91a2.16,2.16,0,0,1-.13-3h0a2.15,2.15,0,0,1,3-.12h0a2.14,2.14,0,0,1,.12,3h0a2.13,2.13,0,0,1-1.58.69h0A2.16,2.16,0,0,1,25.6,72.91Z"/><path class="cls-15" d="M2.37,87a2.13,2.13,0,0,1-.12-3h0a2.13,2.13,0,0,1,3-.12h0a2.14,2.14,0,0,1,.12,3h0a2.14,2.14,0,0,1-1.57.7h0A2.13,2.13,0,0,1,2.37,87Z"/><path class="cls-15" d="M9.63,79.13a2.15,2.15,0,0,1-.12-3h0a2.14,2.14,0,0,1,3-.12h0a2.12,2.12,0,0,1,.12,3h0a2.11,2.11,0,0,1-1.56.7h0A2.18,2.18,0,0,1,9.63,79.13Z"/><path class="cls-15" d="M16.89,71.26a2.15,2.15,0,0,1-.12-3h0a2.15,2.15,0,0,1,3-.12h0a2.14,2.14,0,0,1,.12,3h0a2.13,2.13,0,0,1-1.57.69h0A2.15,2.15,0,0,1,16.89,71.26Z"/><path class="cls-15" d="M.38,77.69a2.14,2.14,0,0,1-.12-3h0a2.13,2.13,0,0,1,3-.12h0a2.16,2.16,0,0,1,.13,3h0a2.15,2.15,0,0,1-1.58.68h0A2.08,2.08,0,0,1,.38,77.69Z"/><path class="cls-15" d="M7.64,69.83a2.15,2.15,0,0,1-.12-3h0a2.14,2.14,0,0,1,3-.12h0a2.14,2.14,0,0,1,.13,3h0a2.13,2.13,0,0,1-1.57.68h0A2.14,2.14,0,0,1,7.64,69.83Z"/><path class="cls-15" d="M14.91,62a2.14,2.14,0,0,1-.13-3h0a2.15,2.15,0,0,1,3-.12h0a2.15,2.15,0,0,1,.12,3h0a2.16,2.16,0,0,1-1.57.69h0A2.13,2.13,0,0,1,14.91,62Z"/><path class="cls-15" d="M22.17,54.09a2.15,2.15,0,0,1-.12-3h0a2.14,2.14,0,0,1,3-.12h0a2.14,2.14,0,0,1,.12,3h0a2.14,2.14,0,0,1-1.56.69h0A2.09,2.09,0,0,1,22.17,54.09Z"/><path class="cls-15" d="M-1.06,68.18a2.15,2.15,0,0,1-.11-3h0a2.13,2.13,0,0,1,3-.11h0a2.14,2.14,0,0,1,.12,3H2a2.15,2.15,0,0,1-1.57.68h0A2.09,2.09,0,0,1-1.06,68.18Z"/><path class="cls-15" d="M6.2,60.31a2.13,2.13,0,0,1-.11-3h0a2.14,2.14,0,0,1,3-.13h0a2.16,2.16,0,0,1,.11,3h0a2.08,2.08,0,0,1-1.57.68h0A2.12,2.12,0,0,1,6.2,60.31Z"/><path class="cls-15" d="M13.48,52.44a2.13,2.13,0,0,1-.13-3h0a2.15,2.15,0,0,1,3-.12h0a2.14,2.14,0,0,1,.12,3h0a2.13,2.13,0,0,1-1.58.69h0A2.06,2.06,0,0,1,13.48,52.44Z"/><path class="cls-15" d="M20.74,44.58a2.15,2.15,0,0,1-.12-3h0a2.13,2.13,0,0,1,3-.12h0a2.16,2.16,0,0,1,.13,3h0a2.2,2.2,0,0,1-1.58.69h0A2.11,2.11,0,0,1,20.74,44.58Z"/><path class="cls-15" d="M64.17,75.73l-3.26,1.12a2.14,2.14,0,0,0,2,2.77,2.14,2.14,0,0,0,1.46-3.71A1.88,1.88,0,0,0,64.17,75.73Z"/><path class="cls-15" d="M52.8,77.4a2.13,2.13,0,0,0,2.83.06L52.13,76A2.13,2.13,0,0,0,52.8,77.4Z"/><path class="cls-15" d="M43.8,72.64a2.17,2.17,0,0,0-.37.31A2.15,2.15,0,0,0,45,76.55a2.17,2.17,0,0,0,1.58-.7A2.12,2.12,0,0,0,47.09,74Z"/><path class="cls-15" d="M80.14,70.25v1.57a2.11,2.11,0,0,0,.6-.44,2.14,2.14,0,0,0,.56-1.54Z"/><path class="cls-15" d="M90,66.86a2.23,2.23,0,0,0,.32.38,2.14,2.14,0,0,0,3.59-1.72Z"/></g></svg>