<svg id="레이어_1" data-name="레이어 1" xmlns="http://www.w3.org/2000/svg" viewBox="0 0 124 124"><defs><style>.cls-1{fill:#6ebe76;}.cls-2{fill:#ea5554;}.cls-3{fill:#fff;}.cls-10,.cls-4,.cls-6,.cls-8{fill:none;stroke-linecap:round;stroke-width:1.5px;}.cls-4{stroke:#c13e3d;}.cls-4,.cls-6{stroke-linejoin:round;}.cls-5{fill:#c6c6c6;}.cls-6{stroke:#a4a4a4;}.cls-7{fill:#f4a04a;}.cls-8{stroke:#ea822e;}.cls-10,.cls-8{stroke-miterlimit:10;}.cls-9{fill:#5b86c4;}.cls-10{stroke:#4166a8;}</style></defs><rect class="cls-1" width="124" height="124"/><path class="cls-2" d="M111.7,94,62.91,76.41,14.5,80.14l-.1,0a3,3,0,0,0-2.57,3v6.18c0,2.25,2.53,3,2.53,3L62.77,110l48.93-4.29L85.49,96Z"/><path class="cls-3" d="M112.22,105.63c.16,0-.17.18-.53.22h-.09l-.18,0h-.14l-3.86.29-43.8,3.28a2.41,2.41,0,0,1-.54,0,2.94,2.94,0,0,1-2.51-2.86v-5.38a3,3,0,0,1,3-2.92L85.53,96.6l10-.75,15.77-1.18h.27l.3,0c-1.31.37-2.33,2.66-2.33,5.43C109.52,103.18,110.73,105.63,112.22,105.63Z"/><line class="cls-4" x1="59.18" y1="97.52" x2="16.8" y2="82.11"/><path class="cls-5" d="M111.24,80.08h0l-.05,0a2.52,2.52,0,0,0-.58-.32l-7.3-2.81L76,65.59l-65.89,6.6,22.35,9.07L10.91,83.41,42.68,96.74l66.93-5.89h0a2.48,2.48,0,0,0,2.63-2.47V82A2.47,2.47,0,0,0,111.24,80.08Z"/><path class="cls-3" d="M45.36,87.93v5.52a2.48,2.48,0,0,1-1.9,2.41,2.18,2.18,0,0,1-.72.06h-.09a2.34,2.34,0,0,1-.67-.16L9.5,82.86c1-.82,1.73-2.9,1.73-5.34a8.82,8.82,0,0,0-1.12-4.64,2.31,2.31,0,0,1,1,.16l21.33,8.21,11.35,4.38h0A2.48,2.48,0,0,1,45.36,87.93Z"/><path class="cls-6" d="M10.31,72.88l22.12,8.37,11.35,4.38h0a2.48,2.48,0,0,1,1.56,2.3v5.52a2.48,2.48,0,0,1-1.9,2.41,2.18,2.18,0,0,1-.72.06h-.09a2.34,2.34,0,0,1-.67-.16L9.5,82.86"/><line class="cls-6" x1="47.82" y1="86.87" x2="109.7" y2="81.41"/><path class="cls-7" d="M114.27,73.79,65.48,56.19,17.07,59.92l-.1,0a3,3,0,0,0-2.57,3v6.23c0,2.25,2.53,3,2.53,3l48.41,17.6,48.93-4.34L88.06,75.79Z"/><path class="cls-3" d="M112.21,80.17c0,2.74,1,5,2.29,5.42-.08,0-4.51.35-4.51.35l-43.8,3.29a3.07,3.07,0,0,1-.53,0,2.94,2.94,0,0,1-2.51-2.87V80.92a3,3,0,0,1,3-2.91L88.1,76.36l25.11-1.93a2.87,2.87,0,0,1,1.06.25C112.78,74.68,112.21,77.14,112.21,80.17Z"/><path class="cls-8" d="M114.5,85.59c-.08,0-4.51.35-4.51.35l-43.8,3.29a3.07,3.07,0,0,1-.53,0,2.94,2.94,0,0,1-2.51-2.87V80.92a3,3,0,0,1,3-2.91L88.1,76.36l25.75-1.93"/><line class="cls-8" x1="61.76" y1="76.89" x2="19.38" y2="61.48"/><path class="cls-9" d="M105.92,55,69.3,43.76h-.11l-2.67.4L12.87,52.64a.24.24,0,0,0,0,.46L47.15,66.18l-.25,0-.26,11.09a.25.25,0,0,0,.29.24l58.26-11.72.25,0h0a2.48,2.48,0,0,0,1.83-2.39V56.8h0A1.9,1.9,0,0,0,105.92,55Z"/><path class="cls-3" d="M48.88,68.54v5.88A2.47,2.47,0,0,1,47,76.81h0l-.24,0h0l-.13,0a2.5,2.5,0,0,1-1.13-.17L11.79,63.33c1.06-.77,1.82-2.9,1.82-5.41a8.38,8.38,0,0,0-1.3-4.9h.21a2.45,2.45,0,0,1,.87.17l33.76,13,.12,0h0A2.46,2.46,0,0,1,48.88,68.54Z"/><path class="cls-10" d="M13,53.2l34.16,13,.12,0h0a2.46,2.46,0,0,1,1.58,2.3v5.88A2.47,2.47,0,0,1,47,76.81h0l-.24,0h0l-.13,0a2.5,2.5,0,0,1-1.13-.17L11.6,63.26"/><line class="cls-10" x1="51.95" y1="66.21" x2="104.69" y2="56.19"/><path class="cls-4" d="M111.69,105.85h-.09l-.18,0h-.14l-3.86.29-43.8,3.28a2.41,2.41,0,0,1-.54,0,2.94,2.94,0,0,1-2.51-2.86v-5.38a3,3,0,0,1,3-2.92L85.53,96.6l10-.75,15.77-1.18h.27"/></svg>