<svg id="레이어_1" data-name="레이어 1" xmlns="http://www.w3.org/2000/svg" viewBox="0 0 124 124"><defs><style>.cls-1{fill:#b9d991;}.cls-2{fill:#cde7e3;}.cls-3{fill:#fff;}.cls-4{fill:#dc4627;}.cls-5{fill:#aecac9;}</style></defs><rect class="cls-1" width="124" height="124"/><path class="cls-2" d="M98.3,38,94,31.64a10.6,10.6,0,0,0-.65-.95v0h0a10.39,10.39,0,0,0-8.27-4.1H38.91a10.39,10.39,0,0,0-8.27,4.1h0v0a10.6,10.6,0,0,0-.65.95L25.7,38h2.82V73.9A10.39,10.39,0,0,0,38.91,84.29H85.09A10.39,10.39,0,0,0,95.48,73.9V38Z"/><rect class="cls-3" x="24.12" y="32.13" width="75.76" height="65.31" rx="11.76"/><polygon class="cls-4" points="77.84 59.06 67.72 59.06 67.72 48.94 56.28 48.94 56.28 59.06 46.16 59.06 46.16 70.5 56.28 70.5 56.28 80.62 67.72 80.62 67.72 70.5 77.84 70.5 77.84 59.06"/><rect class="cls-2" x="53.92" y="32.13" width="16.17" height="4.32"/><polygon class="cls-5" points="70.08 32.13 53.92 32.13 54.76 29.96 69.24 29.96 70.08 32.13"/></svg>