<svg id="레이어_1" data-name="레이어 1" xmlns="http://www.w3.org/2000/svg" viewBox="0 0 124 124"><defs><style>.cls-1{fill:#ffe67f;}.cls-2{fill:#1f4513;}.cls-3{fill:#3a672a;}.cls-4{fill:#548c3f;}.cls-5{fill:#77be58;}.cls-6{fill:#e6e6e6;}.cls-7{fill:#fff;}.cls-8{fill:#4b170d;}.cls-9{fill:#c13e3d;}.cls-10{fill:#d94f4f;}.cls-11{fill:#ea5554;}.cls-12{fill:none;}.cls-13{fill:#ef8889;}.cls-14{fill:#eb6661;}</style></defs><rect class="cls-1" width="124" height="124"/><path class="cls-2" d="M104.11,75.23a5.68,5.68,0,0,0-2.92-1.82C99.56,73.16,98.64,71,98,69.25S94,64.09,94.26,58.41a16.55,16.55,0,0,0,4.64,5.48c3.67,2.49,2.77,4.86,3.56,7.15s1.65,3,2.86,5.52Z"/><path class="cls-2" d="M106.9,89.3c.06-1.39.11-2.77.07-4.13a28.79,28.79,0,0,0-.41-4.06,19.18,19.18,0,0,0-1.16-3.87,14.28,14.28,0,0,0-2.26-3.4A10.19,10.19,0,0,1,105.88,77a14,14,0,0,1,1.37,4,19,19,0,0,1,.25,4.19A20.48,20.48,0,0,1,106.9,89.3Z"/><path class="cls-3" d="M99.08,77.51s1.58-4.43,0-6.24-1.59-4.36-4.55-4.92-3.39-1.27-6.68-.43c0,0,4.26,1.08,5.06,2.48s1.39,2.9,2.57,3.52S98.43,76.48,99.08,77.51Z"/><path class="cls-3" d="M104.66,95.22a71.19,71.19,0,0,1-.55-7.44c-.07-2.49,0-5,.11-7.48s.44-5,.84-7.43a47.12,47.12,0,0,1,1.84-7.24c-.54,2.43-1,4.87-1.3,7.32s-.55,4.92-.68,7.4-.23,4.94-.27,7.42S104.62,92.73,104.66,95.22Z"/><path class="cls-4" d="M105.37,93.45a20.75,20.75,0,0,1-.45-5.22A28.12,28.12,0,0,1,107.14,78c.32-.82.73-1.59,1.12-2.37s.89-1.51,1.36-2.24c-.71,1.59-1.43,3.16-2,4.8a41.29,41.29,0,0,0-1.41,5,40,40,0,0,0-.78,5.1A34.55,34.55,0,0,0,105.37,93.45Z"/><path class="cls-4" d="M99.4,66.56a32.14,32.14,0,0,1,2.38,6.56A57.42,57.42,0,0,1,103.05,80a62.62,62.62,0,0,1,.34,7c0,1.17-.09,2.33-.14,3.49s-.22,2.32-.37,3.48c0-2.33.07-4.65,0-7s-.23-4.62-.49-6.91-.63-4.58-1.1-6.84A50.13,50.13,0,0,0,99.4,66.56Z"/><path class="cls-3" d="M101.27,86.73c-.39-2.18-.8-4.32-1.36-6.42-.28-1-.62-2.08-1-3.1a28.33,28.33,0,0,0-1.35-3A11.82,11.82,0,0,1,99.42,77a18.38,18.38,0,0,1,1.16,3.13A20.77,20.77,0,0,1,101.27,86.73Z"/><path class="cls-3" d="M107.75,76.92s1.79-3.15,4-3.69,4.69-1.06,5.49-2l-4.16-1-3.74,2.3Z"/><path class="cls-5" d="M107.5,77.36s.74-4.84,2.13-5.74,1.43-2.47,5.09-2.17,3,.12,6.56,2.86a27.92,27.92,0,0,1-6-.28c-2.4-.51-4.66,0-6.09,2.38S107.5,77.36,107.5,77.36Z"/><path class="cls-3" d="M106.27,65.4s1.84,0,3.75-2.43,3.22-2.17,4.37-2.4c0,0,.17,3.15-1.83,4.5s-2,3.73-5.39,4.94Z"/><path class="cls-5" d="M104.91,73.93a4.93,4.93,0,0,1,2.72-3.81c2.66-1.54.81-5.67,2.66-8.83s-.7-8-.7-8-4.14,2.58-4.48,5.74,0,4.76-1,7S104.91,73.93,104.91,73.93Z"/><path class="cls-3" d="M100.84,71.27s2-5.67.81-6.85-1.94-3.68-5.51-2.81c0,0,2.56.9,2.47,2.9S100.4,70.71,100.84,71.27Z"/><path class="cls-5" d="M98.66,61.61A5.28,5.28,0,0,0,95,63.33c-1.92,1.84-4.11,1.25-4.49,4.15,0,0-.7-2.84,1-4s1.44-2.08,3.08-2.3A8.87,8.87,0,0,1,98.66,61.61Z"/><polygon class="cls-6" points="109.97 101.47 97.7 101.47 96.14 85.07 111.53 85.07 109.97 101.47"/><polygon class="cls-7" points="112.49 88.39 95.2 88.39 94.7 85.07 112.97 85.07 112.49 88.39"/><path class="cls-8" d="M95.24,102H91.55c-.46,0-.85-.51-.92-1.21l-.86-8.57c-.09-.86.35-1.64.92-1.64h3.69c.46,0,.85.52.92,1.21l.86,8.58C96.25,101.27,95.81,102,95.24,102Z"/><path class="cls-8" d="M12.48,102h3.69c.46,0,.85-.51.92-1.21L18,92.26c.09-.86-.35-1.64-.92-1.64H13.34c-.46,0-.85.52-.92,1.21l-.86,8.58C11.47,101.27,11.91,102,12.48,102Z"/><path class="cls-9" d="M93.61,76.82s3.13-4.1,7.56-3.14c-1.94-1.45-8.27-2.56-12.8-2.67l-.52,0v8.1h2.07v4.72h3.69Z"/><path class="cls-9" d="M16.61,76.82S13.48,72.72,9,73.68c2-1.45,8.28-2.56,12.8-2.67l.52,0v8.1H20.3v4.72H16.61Z"/><path class="cls-10" d="M102.69,76.73c0-2.47-2.06-4-4.53-4a4.82,4.82,0,0,0-4.55,4.09h0c-.53,2.63-.86,7-.86,7H17.47s-.33-4.36-.86-7h0a4.8,4.8,0,0,0-4.54-4.09c-2.48,0-4.48,1.53-4.53,4h0V90.85a4.43,4.43,0,0,0,2,3.68,5,5,0,0,0,.76.41,4.47,4.47,0,0,0,1.72.34H98.27a4.47,4.47,0,0,0,1.72-.34,5,5,0,0,0,.76-.41,4.46,4.46,0,0,0,2-3.68V76.73Z"/><path class="cls-11" d="M53.86,59.63h0Z"/><path class="cls-11" d="M53.67,59.63h0Z"/><path class="cls-10" d="M54.05,55.37h-.38c-2.65,0-35.21.37-35.21,15.87v12h70.8v-12C89.26,55.74,56.7,55.37,54.05,55.37Z"/><path class="cls-12" d="M53.86,82.07v0Z"/><path class="cls-12" d="M93.61,81.81v.26A1.78,1.78,0,0,0,93.61,81.81Z"/><path class="cls-13" d="M93.61,81.81c0-.93-2.24-5.71-19.87-5.71s-19.85,4.78-19.88,5.71v1.24c0,.78.32,1.41.71,1.41H92.9c.39,0,.71-.63.71-1.41V81.81"/><path class="cls-13" d="M14.11,81.81c0-.93,2.24-5.71,19.87-5.71s19.85,4.78,19.88,5.71v1.24c0,.78-.32,1.41-.71,1.41H14.82c-.39,0-.71-.63-.71-1.41V81.81"/><path class="cls-14" d="M91.32,80.66h0a147.78,147.78,0,0,0-35.17,0h0a2.74,2.74,0,0,0-2.29,2.86v3.91a2.64,2.64,0,0,0,2.29,2.87l3.25.31a147.65,147.65,0,0,0,28.67,0l3.25-.31a2.64,2.64,0,0,0,2.29-2.87V83.52A2.71,2.71,0,0,0,91.32,80.66Z"/><path class="cls-14" d="M51.56,80.66h0a147.69,147.69,0,0,0-35.16,0h0a2.74,2.74,0,0,0-2.29,2.86v3.91A2.63,2.63,0,0,0,16.4,90.3l3.25.31a147.55,147.55,0,0,0,28.66,0l3.25-.31a2.64,2.64,0,0,0,2.3-2.87V83.52A2.71,2.71,0,0,0,51.56,80.66Z"/></svg>