<svg id="레이어_1" data-name="레이어 1" xmlns="http://www.w3.org/2000/svg" viewBox="0 0 1366 768"><defs><style>.cls-1{fill:#a0d4ed;}.cls-10,.cls-2{fill:#fff;}.cls-3{fill:#e87f76;}.cls-10,.cls-3,.cls-4,.cls-9{stroke:#324e76;stroke-linecap:round;stroke-linejoin:round;}.cls-4{fill:#a16968;}.cls-5{fill:#d8d8d8;}.cls-6{fill:#768ea9;}.cls-7{fill:#ccc;}.cls-8{fill:#bfc0bf;}.cls-12,.cls-9{fill:none;}.cls-11{fill:#fcf1e3;}.cls-13{fill:#d8e9f1;}</style></defs><rect class="cls-1" x="683" width="683" height="767.67"/><path class="cls-2" d="M1229.37,186.68s1.76-17.92,4.72-24.78a51.4,51.4,0,0,1-21,4.27c-11.3-.34-14-1.64-14-1.64s-1.93,22.36-2,31.91l.85,14s-.39,4.18-.39,6.8c0,0,5.67,3,11.34,1.26"/><path class="cls-2" d="M1224.09,216.61a24.39,24.39,0,0,0,4.79-1.31,18.24,18.24,0,0,1,.49-4.88l-3.72,2.45Z"/><rect class="cls-2" x="0.7" width="683" height="767.67"/><path class="cls-3" d="M1349.07,398.92l-46.69-79.12-46.7,79.12H1286c.14,8.92.53,38,0,51.62-.83,19.76-4.87,31.56-5,31.95a136.21,136.21,0,0,1-7.18,17.81c-22.4,46.07-71.19,36.4-71.19,36.4s80.5,18.48,104.59-36.4a131.48,131.48,0,0,0,5.54-15h0a107.33,107.33,0,0,0,4.3-17.65,136.39,136.39,0,0,0,1.77-16.61c.09-3.36.22-7.89.36-12.91.41-14.28.92-32.51,1.11-39.24Z"/><path class="cls-4" d="M1170.51,519.85c26.28,1.27,17,32.34,88.41,17.08q2.41-.52,5-1.11c-42.84,11.07-38.46-13.56-65.33-14.85s-28-1.05-28-1.05Z"/><path class="cls-3" d="M1003.76,618.78s48.79,9.68,71.2-36.4,39-65.08,104.07-62.53c3.81.15,14.27.87,14.27.87-49,3.36-66.73,20.18-84.94,61.66-24.1,54.89-104.6,36.4-104.6,36.4"/><path class="cls-4" d="M971.74,601.94c26.27,1.26,17,32.33,88.4,17.07q2.41-.51,5-1.1c-42.84,11.07-38.45-13.56-65.32-14.86s-28-1-28-1Z"/><path class="cls-3" d="M815.71,700.7s48.78,9.68,71.19-36.4c19.82-40.75,34.35-58.59,82.5-62.17,6.28-.46,17.33.24,25,.67-42,4.86-57.09,22.66-74.14,61.5-24.1,54.89-104.59,36.4-104.59,36.4"/><path class="cls-4" d="M783.68,683.86c26.27,1.26,17,32.33,88.4,17.07,1.61-.34,3.27-.71,5-1.1C834.2,710.9,838.59,686.27,811.72,685s-28-1-28-1Z"/><path class="cls-3" d="M820.92,686.58c-2.58-1-6.56-1.39-10.46-1.67-29.46-2.08-54-2.7-81.45,19.74-41,33.51-46.43,159.12-46.27,164h47C729.69,799.49,747.74,680.2,820.92,686.58Z"/><path class="cls-2" d="M902.91,482.1s3.82,20.45,4.22,23.79-25.74,5-34.4,4.8l-2.66-.48a72.73,72.73,0,0,1-22.36-5l9-72.3-.13-15.24a15,15,0,0,0-3.6-1.19s3.07-2.49,4.38-2.75,1.83-2.57,1.83-2.57.64-5.24,4.47-13.72,5.54-11.46,6.5-12.22a15.94,15.94,0,0,0,2.2-2.43l1.32-.91a17.05,17.05,0,0,1,12.08-2.42,33.83,33.83,0,0,1,12.54,4.89l.2.87a84.35,84.35,0,0,0,6,9.54l1.88,9.86s4.41,23.34-1.06,41.82v2.74a159.5,159.5,0,0,0-2.36,33"/><path class="cls-2" d="M843.1,489.79s-19.87-1.86-25.48-.6l-2.76.6c-3,1.43-.75,6.37-.35,10.75.06.73.15,1.33.24,1.85l-.14.32a3.63,3.63,0,0,1-1.8.16h0l-1.14.4c.87,6.31,5.17,6.12,5.17,6.12,7.57-1.08,16.11-3.56,20.56-6.12a24,24,0,0,1,6.94-3Z"/><path class="cls-5" d="M862.29,436.28s2.6,2.56,3.51,3.75,3.74,5.92,7.68,4.42c0,0,.14-11.91-2.78-16.33s-10.2-10.52-17.05-11.56a1.18,1.18,0,0,0-1,1.3,4.35,4.35,0,0,0,1.35,2.46Z"/><path class="cls-6" d="M903.27,315.75l-1.71-.5s-15.39-3-23.74.06-15.46,7.77-17.12,13.93l-.34,1.23s-8.29,39.64,12.37,42.24a8,8,0,0,0,3.78-.21s2.82.77,8.73-.7a21.54,21.54,0,0,0,6,1.81l1-1.11c-9.94-2.91-11.56-15.27-11.56-15.27a8.52,8.52,0,0,1-3-9.49c1.62-5.14,6.1-3.28,6.1-3.28,5.26-1.49,10.65-8.32,15.65-13.88s9.81-9.91,9.81-9.91l1.28-.71A42.87,42.87,0,0,0,903.27,315.75Z"/><path class="cls-7" d="M835.82,575.14s1.71,2.48,0,3.34-1.78-.05-5.7,2.19l-2,1.22-.29-3.38,7-3.22Z"/><path class="cls-2" d="M807.16,602.4a19,19,0,0,0,5.41-3.13c4.51-4.79,3.68-8.46,5.37-13.68s4.38-8.47,6.18-18.28-2.76-12.91-2.76-12.91l-.79-.5a54.52,54.52,0,0,0-6.7,0s3.88.63,5.23,6.33a25.25,25.25,0,0,1-1.51,15.19,85.13,85.13,0,0,0-5.18,15.2c-1,5.21-3.72,9.88-8,12Z"/><path class="cls-2" d="M816.26,595.06a73.78,73.78,0,0,1,5.56-8,37.23,37.23,0,0,1,6.89-5.53v-1.59s3-2.43,3.13-4a16.9,16.9,0,0,1,1.18-4l.58-1c6.86-10.18,0-14.18,0-14.18l-1-.47s-5.5-.84-6.9-.9a12.83,12.83,0,0,1-3.2-.56,17.52,17.52,0,0,1,1.64,12.54,127.16,127.16,0,0,1-5.18,15.61,64.75,64.75,0,0,0-2.14,7.51,46.83,46.83,0,0,1-1.89,5.71Z"/><path class="cls-2" d="M887.84,682.5c-1-2.45-6-2.65-6-2.65v.93a16.29,16.29,0,0,1-2.4-.93,23.77,23.77,0,0,1-8.18-10s-1.76-5.37-3.42-6.2c0,0,3.3,3.86,2.25,8.52l-.45.89-.45-.57-.55-1.2c-2,0-1.29,2.86-5.32,3.17s-5.08-3.53-9.47-4.22-8.92-4.08-8.92-4.08l-.74.44s-3.73,3.92-7.45,13l-.29.87.87,1s7.66,6.74,16.53,6.92,8.72-1.5,16.44-.82S889.18,685.7,887.84,682.5Z"/><path class="cls-7" d="M806.55,601.08s-2.72,3.17-5.31,1.32c-2.43-1.74-2.76-8.82-1.53-12.82,1.3-4.22,5.5-9.76,6.19-13.21,1.22-6.12-.34-12.39,5.75-20.5l1.28-.9a4.4,4.4,0,0,1,3.74.54s3.89,3,2.76,12.91c-.76,6.72-2.42,6.72-5.59,16.62-1.67,5.22-1.58,10.13-6.09,14.92Z"/><path class="cls-2" d="M835.62,679.85c-1,1.32-1.13,5-1.13,5,8.16,11.07,24,6.47,28.87,7.4S889,690.75,890,686.44s-1.29-5.59-1.29-5.59c-1.71-.78-2.5.06-2.5.06a2.83,2.83,0,0,1,1.62,1.59c1.34,3.2-9.78,5.77-17.51,5.09s-7.57,1-16.44.82-16.53-6.92-16.53-6.92Z"/><path class="cls-8" d="M856.49,557.76c0-4.69-2.43-16.21-4.69-27a73.2,73.2,0,0,1-.91-21.41l.57-2.8a73.4,73.4,0,0,0,18.61,3.62,119.53,119.53,0,0,0,14.34,0c7.73-.49,15.8-1.47,17.44-1.85s2.59-.51,2.59-.51,10,24.72,13.07,32.65,9.43,18.07,11.46,27.38l.31,1.72-1.2,1.11s-6.76,3.69-11.38,4.23-12.76-5.13-21.35-11l-1.93-1.39s-12.32-8.48-17.62-6.85c0,0-.72.38-.13,1.62l-11.16-.07Z"/><path class="cls-8" d="M887.93,373.27s9.31,3.24,10.46,5,.38,3.61,1.29,6.93l-1.39-.87a33.83,33.83,0,0,0-12.54-4.89,17.05,17.05,0,0,0-12.08,2.42l0-1.47a18.28,18.28,0,0,0,2.89-6.34A13.06,13.06,0,0,1,887.93,373.27Z"/><path class="cls-9" d="M883.36,483.14a233.28,233.28,0,0,0,0,24.71"/><path class="cls-9" d="M888.06,443.47s-3.65,7-4.7,36.68"/><path class="cls-9" d="M876.51,478.12a77.43,77.43,0,0,1-9.93,25.48"/><path class="cls-10" d="M863.3,486.64s14.19-5,18.89-5.87,6.53,3.29,5.87,8,1.94,8.34-3.58,10.86c-1.12.51-21.07-.44-21.07-.44"/><path class="cls-11" d="M857.36,417.62l-1.21.88s-12.13,9.22-15.57,11.31-3.7,6.85-2.62,12.9,2.72,20.92,6.4,36.39l.25,2.88c-2.35,7.47-1.4,9.43-.8,11.48s.48,3.41.53,6.82,2.28,3.19,4,2.74c.38-.1.66-.55.89-1.17l.42.82a3.82,3.82,0,0,0,3.86.67c.79-.46,1.27-2.86,1.56-5.15h0l-.31,3.77a3.69,3.69,0,0,0,4,.3,2.73,2.73,0,0,0,.8-1.54l.25.14c3.48.72,4-2.52,4.49-4.73s2.73-7,.45-8.38a62,62,0,0,1-6.84-5.78l-.68-1.33-.51-2.53a70.75,70.75,0,0,1-1.12-17,133.18,133.18,0,0,0-.45-18.93l.77-1.14c3.83-3.93,14.8-9.51,14.8-9.51l1.08-.68a15.86,15.86,0,0,0-3.14-6.31C865,420.65,857.36,417.62,857.36,417.62Z"/><path class="cls-11" d="M946.46,486.64l-1,.42c.65-2.37.69-2.45-.82-4.55-1.65-2.3-1.86-2.31-4.66-2.23a42.45,42.45,0,0,1-6-.37l0,0-1.17-.42s-6-4.38-14.22-14.62-12-13.08-12-13.08L905,450.64l-2.64,18.11,2.08,1.87a100.69,100.69,0,0,0,9.18,7.2c3.25,2,11.13,9.31,11.53,9.72l1,.69s-.6,4.21,3.75,8.26l.57.46a2.4,2.4,0,0,0-.31,1.68c.33,1,2.64,4.09,4.72,3.42l.6-.58a2.23,2.23,0,0,0,.78.35c1,.14,2.15-1,2.15-1l.5-.48a1.11,1.11,0,0,0,.52.11,5.76,5.76,0,0,0,2-1.05l1.09-.51c1,0,5.54-4.32,5.37-5.16Z"/><path class="cls-2" d="M864.23,557.36c-9.18.28-17.15,1.31-19.39,1.45a32,32,0,0,1-9.41-1.23,25.51,25.51,0,0,0,1.09,3.67c.84,2.3-1.09,6.41-1.09,6.41a28.85,28.85,0,0,0-2.85,6.26,9.1,9.1,0,0,1-1.53,3.64c3.33-2.94,10.31-4.22,10.31-4.22,2.88-.52,11.71.67,21.65,2.28a27.2,27.2,0,0,0,4.11-5.26C870.34,563.41,864.24,557.37,864.23,557.36Z"/><path class="cls-11" d="M913.71,574.62c-3.73-.22-9.74-5.14-9.74-5.14l-15.13-9.82c-7-2.19-16.28-2.55-24.61-2.3,0,0,6.11,6,2.89,13a27.2,27.2,0,0,1-4.11,5.26c15.13,2.44,32.85,5.85,36.21,5.7,5.58-.25,6.66,1,9.62.42s8.67-5.79,8.67-5.79l1.27-1.33A28.52,28.52,0,0,1,913.71,574.62Z"/><path class="cls-12" d="M873.83,643.3c-6.08.48-15.84-3.75-18.34-4.94C858,639.55,867.05,643.83,873.83,643.3Z"/><path class="cls-12" d="M855.49,638.36c2.46,1.17,11.59,5.32,18.34,5h0C867.71,643.61,857.94,639.53,855.49,638.36Z"/><path class="cls-2" d="M855.49,638.36c-4,14.82-5.66,19.49-9.43,26.66l-.68,1.6s4.46,3.1,6.65,3.2,4.77,1.74,7.18,3.27,5.18,1.83,7,.29,1.58-1.85,2.43-1.89-.42-1.62-.42-1.62a5.43,5.43,0,0,1-1.21-3.25c.8-6.17,3.57-14.79,6.78-23.3C867.08,643.68,858,639.53,855.49,638.36Z"/><path class="cls-9" d="M874.19,643.3h-.36Z"/><path class="cls-11" d="M870.4,576.84l.23,1.88s2.13,14.11.26,19.12S863,609.77,857.5,630.79c-.74,2.79-1.4,5.3-2,7.57,2.45,1.17,12.22,5.25,18.34,4.95,5.69-15.06,12.76-29.76,12.76-29.76,4.26-4.41,4.86-6,5.72-13.3a147.64,147.64,0,0,1,3.84-17.85l.73-1.23Z"/><path class="cls-11" d="M912.19,339.53l0-1.73A28.07,28.07,0,0,0,908.63,322l-.5-.37s-3.75,3.37-8.75,8.93S889,342.94,883.75,344.46a4.36,4.36,0,0,0-3.71.1c-3,1.31-4.59,8.72.66,12.49l-.05.18s1.62,12.36,11.56,15.27l-2,1.52,6.21,2.6a30,30,0,0,1,2.33-6.22c12.12,1.64,11.13-2.86,11.12-4.75a3.57,3.57,0,0,1,1.34-2.83,2.41,2.41,0,0,0,.72-1.44,1,1,0,0,0-.75-1c-3.79-1.79-3.52-4.14-3.52-4.14,6,.26,6.46-2,6.46-2l.24-1.19c-.54-2.47,4.7-4.08,4.7-4.08v-1.25C911.36,345.52,912.19,339.53,912.19,339.53Z"/><path class="cls-9" d="M908.63,322a28.07,28.07,0,0,1,3.59,15.78"/><path class="cls-9" d="M912.19,339.53s-.83,6,6.87,8.21"/><path class="cls-9" d="M919.06,349s-5.24,1.61-4.7,4.08"/><path class="cls-9" d="M914.12,354.26s-.48,2.26-6.46,2c0,0-.27,2.35,3.52,4.14"/><path class="cls-9" d="M911.21,362.82a3.57,3.57,0,0,0-1.34,2.83c0,1.89,1,6.39-11.12,4.75a30,30,0,0,0-2.33,6.22"/><path class="cls-9" d="M885.32,345.73a4.12,4.12,0,0,0-5.28-1.17c-3.53,1.52-5.06,11.25,3.7,14"/><path class="cls-9" d="M881,347a2.25,2.25,0,0,1,2.42,0c1.47.77,1.92,2.83,1.14,3.5a1.74,1.74,0,0,0-.44,2.6"/><path class="cls-9" d="M909.19,320.67s-4.81,4.35-9.81,9.91S889,343,883.73,344.46"/><path class="cls-9" d="M889.62,324.35s-5,6-8.68,19.67"/><path class="cls-9" d="M880.65,357.23s1.62,12.36,11.56,15.27"/><path class="cls-9" d="M910.47,320a42.87,42.87,0,0,0-7.2-4.21"/><path class="cls-9" d="M901.56,315.25s-15.39-3-23.74.06-15.46,7.77-17.12,13.93"/><path class="cls-9" d="M860.36,330.47s-8.29,39.64,12.37,42.24"/><path class="cls-9" d="M867.64,358.54s1.27,14.84,13.81,14.52"/><path class="cls-9" d="M877.77,364.87s3,7.09,13.42,8.74"/><path class="cls-9" d="M874.55,363.7s-.24,8,8.72,9"/><path class="cls-9" d="M877.77,366s.26,5,6.71,6.46"/><path class="cls-9" d="M881.85,342.6s6.6-1.92,15.53-13.71"/><path class="cls-9" d="M882.22,340.42s1.86-.24,9-7.15"/><path class="cls-9" d="M909.87,321a11.39,11.39,0,0,1,10.58,4.29"/><path class="cls-9" d="M911.09,322a8.89,8.89,0,0,1,2.93,4.85"/><ellipse class="cls-9" cx="907.91" cy="340.55" rx="0.5" ry="1.89"/><path class="cls-9" d="M904.23,336s1.9-4.79,5.39-4"/><path class="cls-9" d="M887.93,373.27s9.31,3.24,10.46,5,.38,3.61,1.29,6.93"/><path class="cls-9" d="M876.51,374a18.28,18.28,0,0,1-2.89,6.34"/><path class="cls-9" d="M873.67,381.83a17.05,17.05,0,0,1,12.08-2.42,33.83,33.83,0,0,1,12.54,4.89"/><path class="cls-9" d="M892.55,382.54s1,2.74,6.69,8.2"/><path class="cls-9" d="M900.64,392.89a24,24,0,0,1,1.75,5.71"/><path class="cls-9" d="M875.66,398.86c-7.76,5.27-9.17,9.39-12.33,10.36s-2.34,3.1-5.43,4.24a15.62,15.62,0,0,0-5.1,3.14,3,3,0,0,0,.32,2.79"/><path class="cls-9" d="M854.85,416.78s10.77,3,14.83,9.44,4.13,17.25,4.13,17.25"/><path class="cls-9" d="M875.52,442.81s12.15-12.64,14.53-12.68,4.22-3.58,8.56-6.31"/><path class="cls-9" d="M901.4,418s1.75-6.89.51-17.67"/><path class="cls-9" d="M898.49,385.17a84.35,84.35,0,0,0,6,9.54"/><path class="cls-9" d="M905,396.62a40.34,40.34,0,0,1-3.08,23.19"/><path class="cls-9" d="M906.33,404.57s4.41,23.34-1.06,41.82"/><path class="cls-9" d="M872.35,382.74a15.94,15.94,0,0,1-2.2,2.43c-1,.76-2.68,3.73-6.5,12.22s-4.47,13.72-4.47,13.72"/><path class="cls-9" d="M905.27,449.13s-4,21.79-3.34,39.24"/><path class="cls-9" d="M872.87,444.56a5.43,5.43,0,0,1-3.41-.5c-1.67-.88-3.08-3.62-5.06-5.67"/><path class="cls-9" d="M870.7,431.52s-11,5.58-14.8,9.51"/><path class="cls-9" d="M856.15,418.5s-12.13,9.22-15.57,11.31-3.7,6.85-2.62,12.9,2.72,20.92,6.4,36.39"/><path class="cls-9" d="M855.13,442.17a133.18,133.18,0,0,1,.45,18.93,70.75,70.75,0,0,0,1.12,17"/><path class="cls-9" d="M888.06,432.86s3.5,17.89,3.64,29.84"/><path class="cls-9" d="M906.64,451.83s3.78,2.83,12,13.08,14.22,14.62,14.22,14.62"/><path class="cls-9" d="M904.44,470.62a100.69,100.69,0,0,0,9.18,7.2c3.25,2,11.13,9.31,11.53,9.72"/><path class="cls-9" d="M904,436s-9,31.88-8.6,42.12"/><path class="cls-9" d="M902.91,482.1s3.82,20.45,4.22,23.79-25.74,5-34.4,4.8"/><path class="cls-9" d="M870.07,510.21a72.73,72.73,0,0,1-22.36-5"/><path class="cls-9" d="M904.44,507.85s10,24.72,13.07,32.65,9.43,18.07,11.46,27.38"/><path class="cls-9" d="M928.08,570.71s-6.76,3.69-11.38,4.23-12.76-5.13-21.35-11"/><path class="cls-9" d="M893.42,562.59s-12.32-8.48-17.62-6.85"/><path class="cls-9" d="M858.6,530.8S872,542.63,879,548.66s11.72,3.64,22,9.86"/><path class="cls-9" d="M902,562.59s-9.91-3.61-13.91-7.12"/><path class="cls-9" d="M885,553.89a13.16,13.16,0,0,0-7.61-.84c-4.18.83-3.53,1.8-3.35,3.68"/><path class="cls-9" d="M917.51,576s-5.71,5.17-8.67,5.79-4-.67-9.62-.42-50.6-9.28-57.86-8"/><path class="cls-9" d="M835.43,557.58a32,32,0,0,0,9.41,1.23c4.26-.28,29.37-3.76,44,.85"/><path class="cls-9" d="M850.89,509.39a73.2,73.2,0,0,0,.91,21.41c2.26,10.75,4.69,22.27,4.69,27"/><path class="cls-9" d="M896.15,582.4a147.77,147.77,0,0,0-3.84,17.84c-.86,7.26-1.46,8.9-5.72,13.31,0,0-17.33,36-19.54,53.07a5.43,5.43,0,0,0,1.21,3.25"/><path class="cls-9" d="M870.63,578.72s2.13,14.11.26,19.12S863,609.77,857.5,630.79s-7.1,26-11.44,34.23"/><path class="cls-9" d="M833.6,556.7s6.86,4,0,14.18"/><path class="cls-9" d="M839.79,573.58a13.87,13.87,0,0,0-6.19,2.4"/><path class="cls-9" d="M835.82,575.14s1.71,2.48,0,3.34-1.78-.05-5.7,2.19"/><path class="cls-9" d="M833,571.9a16.9,16.9,0,0,0-1.18,4c-.13,1.58-3.13,4-3.13,4"/><path class="cls-9" d="M884.48,381.83s-8.92,5.59-12.47,10.24"/><path class="cls-9" d="M832.58,556.23s-5.5-.84-6.9-.9a12.83,12.83,0,0,1-3.2-.56"/><path class="cls-9" d="M813.87,553.9a54.52,54.52,0,0,1,6.7,0"/><path class="cls-9" d="M821.36,554.4s4.56,3.11,2.76,12.91-4.49,13.06-6.18,18.28-.86,8.89-5.37,13.68a19,19,0,0,1-5.41,3.13"/><path class="cls-9" d="M807.88,600.38c4.51-4.79,4.29-10.12,6-15.34,3.17-9.9,4.83-9.9,5.59-16.62,1.13-9.9-2.76-12.91-2.76-12.91a4.4,4.4,0,0,0-3.74-.54"/><path class="cls-9" d="M816.26,595.06a73.78,73.78,0,0,1,5.56-8,37.23,37.23,0,0,1,6.89-5.53"/><path class="cls-9" d="M824.77,557.62s.5.46,2.88.54a27.57,27.57,0,0,1,7,.9"/><path class="cls-9" d="M864.23,557.36s6.12,6,2.89,13a14.86,14.86,0,0,1-2.89,4.26"/><path class="cls-9" d="M856.85,638.89s8.9,4.65,16.08,4.4"/><path class="cls-9" d="M845,666.18s4.53,3.39,8.92,4.08,5.44,4.54,9.47,4.22,3.28-3.13,5.32-3.17"/><path class="cls-9" d="M867.88,663.67s3.3,3.86,2.25,8.52"/><path class="cls-9" d="M871.3,669.87a23.77,23.77,0,0,0,8.18,10"/><path class="cls-9" d="M869.23,672.51a23.76,23.76,0,0,0,12.65,8.27"/><path class="cls-9" d="M844.23,666.62s-3.73,3.92-7.45,13"/><path class="cls-9" d="M837.36,681.49s7.66,6.74,16.53,6.92,8.72-1.5,16.44-.82,18.85-1.89,17.51-5.09c-1-2.45-6-2.65-6-2.65"/><path class="cls-9" d="M848.13,669.87s-4.89,8-5.5,13.69"/><path class="cls-9" d="M845.38,668a77.43,77.43,0,0,0-7,11.88"/><path class="cls-9" d="M888.72,680.85s2.34,1.28,1.29,5.59-21.79,6.77-26.65,5.84-20.71,3.67-28.87-7.4c0,0,.09-3.71,1.13-5"/><path class="cls-9" d="M806.55,601.08s-2.72,3.17-5.31,1.32c-2.43-1.74-2.76-8.82-1.53-12.82,1.3-4.22,5.5-9.76,6.19-13.21,1.22-6.12-.34-12.39,5.75-20.5"/><path class="cls-9" d="M933.94,479.91a42.45,42.45,0,0,0,6,.37c2.8-.08,3-.07,4.66,2.23s1.45,2.16.62,5.32-1.89,6.81-2,7.3-2.54,1.31-3.37-1.81.95-6.87.95-6.87"/><path class="cls-9" d="M946.46,486.64l1.45,7.11c.17.84-4.38,5.19-5.37,5.16s-4.61-4.33-5.26-5.59,1.56-3.56,1.56-3.56"/><path class="cls-9" d="M936,491.19s-2.21,2.86-2,4.42,4.61,5,5.51,4.86a5.76,5.76,0,0,0,2-1.05"/><path class="cls-9" d="M933.42,493.32a10.33,10.33,0,0,0-1.52,3.7c-.14,1.59,3.39,4.67,4.38,4.8s2.15-1,2.15-1"/><path class="cls-9" d="M931,496.19s-1.09,1.43-.77,2.44,2.64,4.09,4.72,3.42"/><path class="cls-9" d="M926.17,488.23s-.6,4.21,3.75,8.26"/><path class="cls-9" d="M932.34,487.41s1.45,2,5.3,1.76"/><path class="cls-9" d="M931.48,480.77s-1.56.29-1.64,2.79"/><path class="cls-9" d="M862,412.36s10.4,4.77,13.27,9.89c3,5.41,3.71,15.34,3.71,15.34"/><path class="cls-9" d="M885.32,389.94s-5.44,6.89-7.55,7.9"/><path class="cls-9" d="M879.87,397.59s11.38-4.51,19-2.2"/><path class="cls-9" d="M845.52,474.09a6.65,6.65,0,0,1,0,6.06"/><path class="cls-9" d="M844.93,434.18s-2,2-1.57,4.21"/><path class="cls-9" d="M890.32,438.39s1.91-2.73,3.74-9.43"/><path class="cls-9" d="M843.1,489.79s-19.87-1.86-25.48-.6"/><path class="cls-9" d="M844.34,500.28a24,24,0,0,0-6.94,3c-4.45,2.56-13,5-20.56,6.12,0,0-4.3.19-5.17-6.12"/><path class="cls-9" d="M814.61,502.71a3.63,3.63,0,0,1-1.8.16s.77,5.54,3.74,5.08a6.08,6.08,0,0,0,1.86-1.66c3-4.56,2-9.39,1.3-11.74s-3.39-3.31-3.39-3.31-2.09-.14-1.31,3.64.53,10.26,2.61,9.52,1-7.83.39-9.07"/><line class="cls-9" x1="818.89" y1="494.7" x2="819.56" y2="494.58"/><path class="cls-9" d="M817.89,505.53a1.57,1.57,0,0,1-1.33,0c-.67-.33-1.65-.62-2-5s-2.67-9.32.35-10.75"/><path class="cls-9" d="M862.49,491.24s-1.89,1.73-2.08,3-.42,7.29-1.67,8a3.69,3.69,0,0,1-4-.3"/><path class="cls-9" d="M855.44,493.71s-.37,8.72-1.94,9.63a3.82,3.82,0,0,1-3.86-.67"/><path class="cls-9" d="M849.92,495.29s.11,7.28-1.59,7.73-3.93.67-4-2.74.08-4.78-.53-6.82-1.55-4,.8-11.48"/><path class="cls-9" d="M857.89,482a62,62,0,0,0,6.84,5.78c2.28,1.39,0,6.17-.45,8.38s-1,5.45-4.49,4.73"/><path class="cls-9" d="M865,493.71s4.66-.66,6.56,1.43"/><path class="cls-9" d="M844.32,497.74l-.65-4.76s-3.87.59-5.53.63a12.52,12.52,0,0,1-4.08-1"/><path class="cls-9" d="M840.14,499.05s2.58-3.46,4.08-3.55"/><path class="cls-11" d="M1145.59,502.74c-.83-.05-1.26-1.16-1.26-1.16a73.67,73.67,0,0,1-3.58-11.13l-.66-3.18a47.82,47.82,0,0,1-14.52,3.18l.15,1.59s4.26,9,4.32,17.06v1s4.59-2,8.19-1.32,5.54.89,6.94-2.13a24.89,24.89,0,0,1,1.77-3.47Z"/><path class="cls-2" d="M1130.43,522.78a59.8,59.8,0,0,1-1.15-11.51l.33-.64s5.57-2.77,9.91-1.6a4.82,4.82,0,0,0,6.27-3.39c.39-1.21.82-3.16,2.71-2.9,0,0-.59-1.24-3.87-3.58a19.93,19.93,0,0,0,10.57,4c6.48.53,18.8-4.54,20-1.62,1.68,4-22.64,17.8-31.74,19.78-9.39,2-12.79,1.86-12.79,1.86"/><path class="cls-11" d="M1027.82,403.32c6-1.6,14.48,1.19,14.48,1.19l1.84,1a27.67,27.67,0,0,0,3-10.52c.24-5.48-.46-5.9-.46-5.9h-1.14s-7.74-1.61-12.49-5.12l-.32.28s-.09,5.61-4.35,9.13-4.23,4.37-4.67,6.52,3,2.1,2.17,4.71Z"/><path class="cls-2" d="M1012.18,424.47c2.85-7.57,12.91-17.83,12.91-17.83l.8-2.07c.61-2.15-2.21-3.15-2.14-3.89.5-5,5.21-6.46,7.36-10.68a13.25,13.25,0,0,0,1.63-7.46s-7.16-5.45-12.61-6.81l-1.45.32a27.83,27.83,0,0,1-3.49,13.76c-3.78,6.27-5.88,15.79-6.72,21.59s-.39,21.75,1.61,18.85a5.49,5.49,0,0,0,1.26-2.43A19.49,19.49,0,0,0,1012.18,424.47Z"/><path class="cls-7" d="M1003.32,403.32c4.7-26,8-29.8,8-29.8s2.15-2.43,0,8.72-4.31,8.26-6.1,15.22S1003.32,403.32,1003.32,403.32Z"/><path class="cls-2" d="M1011.15,431.22a3.43,3.43,0,0,1-3.07,3.07c-1.42,0-4,.63-5-6.85-1.18-8.7-.11-28.45,4.59-35.81s4.65-17.51,4.65-17.51l.65-1.2a24,24,0,0,1,5.71,1.2v1.93a27.83,27.83,0,0,1-3.49,13.76c-3.78,6.27-5.88,15.79-6.72,21.59s-.39,21.75,1.61,18.85l.84-1.34A4.68,4.68,0,0,1,1011.15,431.22Z"/><path class="cls-2" d="M1172.43,500c4.43-1,6.64.69,6.73,4.34.06,2.29-1.75,5.3-8.19,9.29a128.54,128.54,0,0,1-21.74,11.09,55.08,55.08,0,0,1-18.17,3.55,6.55,6.55,0,0,1-1.46-5l.76-.78.34.78s3.4.18,12.79-1.86c9.1-2,33.42-15.8,31.74-19.78,0,0-.35-1-2.8-.9C1172.43,500.68,1171.74,500.12,1172.43,500Z"/><path class="cls-11" d="M1169.8,178.38c-9.21-3.84-6.58-11.83-6.58-11.83s.59-1.3-.17-4-1.6-5.51-1.6-5.51-3.21,4.07-6.53,3.28a74.69,74.69,0,0,1-9.41,3.9c-4.48,1.42-8.1,7.67-7.9,12.45,0,0-2.42-8.13-9-2.86a4.56,4.56,0,0,0-2.46,3.07c-2.71,5.53.47,12.94.47,12.94a31.22,31.22,0,0,1-2.8,9.8l-.43.9s6.77.13,11.2,1.91a78.58,78.58,0,0,1,9,4.44l.46-1.1c1.57-4.25,2.8-5.25,2.8-5.25,9.92,1.36,12.83-1.87,12.73-4.94s1.8-4,1.8-4,1-1.4-.07-1.85c-3.09-1.26-4.31-5.07-4.31-5.07a23.23,23.23,0,0,0,6.94,1.06s1.69-.23,1.71-1.65a19.82,19.82,0,0,1-.33-2c-.17-1.33,3.21-2.38,3.21-2.38l1.57-.59Z"/><path class="cls-11" d="M1234.73,201.2c.31-2.17-1-3-1.12-4.83a4.56,4.56,0,0,0-1.1-3.27c-.91-1.27,0-2.33.12-4.45a3.29,3.29,0,0,0-1-2.9h-1.2s-4,3.44-5,5.29a6.73,6.73,0,0,1-3.14,2.65l-.63-.43c-1.22-2.07,0-1.95.42-6s-1.9-3.13-1.9-3.13l-1.6,2.92c-2.87,7.45-4.89,7.82-3.7,11.5a38.57,38.57,0,0,1,1.42,8.41l-.94,2.74c-8.5,12.15-18.38,23.49-18.38,23.49l-1.15.79-7.63-1.28.78-2.1s6.36-15.62,8.6-17.74l.38-2.3s2.6-2.12,2.2-3.66a18.45,18.45,0,0,0,.85-6l.13-1.31a22.92,22.92,0,0,0,4.31-4.86c.6-1.09,1.37-4,.21-4.82s-3.77,3.17-8.54,6.73v-6.46c-3.09,1.54-3.79,2.36-3.79,2.36V194s-.93,11.16-4.46,16.39l-.67,1.25A187.83,187.83,0,0,1,1174.84,227l10.5,3.41,1.31,1.92,1.5.38-.37-.07h-1s.7,2.81,1.74,8.09-2.77,11.27-2.77,11.27,11.73,1.66,17.16.5l1.46-.5s3.07,1.68,21.36-39.36l1.37-.8s6.79-4.11,8.06-5.94S1234.41,203.36,1234.73,201.2Z"/><path class="cls-2" d="M1186.25,231.57l-.91-1.16c-4.51-1.62-9.93-2.92-18.15-6.24-8-6.18-10.63-5.36-16-7.65s-7-5.09-7-5.09a73.53,73.53,0,0,0-18.72-4.11c-9.26-.54-10.11,2-10.11,2s-6.33,7.33-9.85,10.84l-1.65,1.44s-6.83,14.66-8.15,28c0,0,.27,20.63,0,26.71A61.42,61.42,0,0,1,1094,288s-2.71,9.33-9.86,33.72l1,2.95s2.42,2.92,10,3,5,4.88,21.5,9.14,28.57,0,28.57,0,2.54-1.11,3.65-1.7l.33-.7c.88-21.67-.18-35.11,2.39-47.24a202.84,202.84,0,0,0,3.44-23.32l.39-1.29,21.24,3.53.72-1.61c1.23-6.34,4.52-7.1,9.45-15.39S1186.25,231.57,1186.25,231.57Z"/><path class="cls-8" d="M1137.92,203.67c-7.81-3.6-16.87-2.77-16.87-2.77s-1-.18-2.08,1.89a23.06,23.06,0,0,1-2.36,4l.77,1.26s9.7-3.12,25.49,3.12l2.52,1.57a15.33,15.33,0,0,0,2.76,2.14,8.26,8.26,0,0,0,2.4,1C1145.44,208.68,1145.74,207.27,1137.92,203.67Z"/><path class="cls-8" d="M1147.71,481.06l-10.9-60.59-3.38-52.63-1-8c4.3-11.48,7.34-19.74,7.34-19.74l1.22-2.29s-16.06,2.06-25.15-1.24-10-3.55-12.38-5.26-3.8-3.44-7.4-3.63-4-.42-4.22-.19a3.2,3.2,0,0,0-.39.9,52.27,52.27,0,0,0-.18,15.43c1.11,9.41,1.6,15.83,1.6,15.83l.51,1.84c-2.77,12.25-6.34,27.61-7.08,28.74-1.26,1.9-.51,3.06-2.43,2.92s-3-1.84-4.92.3l1.62,1.68a16.85,16.85,0,0,0-6.42-2.22c-7.76-1.22-22.48-7.6-27.24-7l-.74,1.53s3,5.69-1.4,16.51-7.19,9.45-7.19,9.45l.26,1.66s11.47,2,33.78,9.09c26.1,8.3,31.39,8.37,36.07-1.84.47-1,1-2.17,1.51-3.39l1.78,6.46s.61.59.57,2.59-.51,1,.3,3.21,2.42.62.91,4.53,2.1,8.24,2.38,16.77,6,36.94,6,36.94l1.35,1s11.75,1.6,25.57-7.41Z"/><path class="cls-6" d="M1152.2,145.12l-2.3-.62s-18.27-1.87-27,1.95l-2.29,1.42s-11,8.13-9,29.79L1114,181a26.78,26.78,0,0,1,.35-10.45l.85.22s-1.16,6.56,1.11,12.34l1.24.85s5.74,1.08,8,4.9l1.07-.6a6.12,6.12,0,0,1,2.25-3.15c-4.13-3.9-3.67-9.82-.25-11.34,6.3-5,8,1.37,8,1.37l1.09,1.58c-.87-7.83,7.69-12.48,7.69-12.48s4.65-1.69,6.14-2.34a10.33,10.33,0,0,0,4.06-3l-.41,1.58c4-.35,5.69-2.09,6.21-4.05l1.51,4.65c2.39-7.06-.44-10.61-2.26-12.07a1.16,1.16,0,0,1,.19-.14,9,9,0,0,1,7.26,7.88h1.74a9.25,9.25,0,0,0-5.2-8.75s4.94,0,7.55-3.57l.22-.94C1160.64,149.88,1152.2,145.12,1152.2,145.12Z"/><path class="cls-9" d="M1161.45,157s2.09,6.58,2.11,8.13"/><path class="cls-9" d="M1163.22,166.55s-2.63,8,6.58,11.83"/><path class="cls-9" d="M1168.47,179.7s-3.38,1.05-3.21,2.38a19.82,19.82,0,0,0,.33,2"/><path class="cls-9" d="M1163.88,185.7a23.23,23.23,0,0,1-6.94-1.06s1.08,4.24,4.31,5.07"/><path class="cls-9" d="M1161.32,191.56s-1.9.92-1.8,4-2.81,6.3-12.73,4.94"/><path class="cls-9" d="M1146.79,200.48s-1.23,1-2.8,5.25"/><path class="cls-9" d="M1126.58,189.78a31.22,31.22,0,0,1-2.8,9.8"/><path class="cls-9" d="M1160.41,150.14s4.82,9.46-5.26,10.33"/><path class="cls-9" d="M1157.16,152.73s1.55,6.56-5.66,9.17"/><path class="cls-9" d="M1154.92,154.58s-.46,5.93-10,8.15"/><path class="cls-9" d="M1162.66,161.07s3.15-2-.18-10"/><path class="cls-9" d="M1160.8,148.86a9,9,0,0,1,7.26,7.88"/><path class="cls-9" d="M1152.2,145.12s8.44,4.75,20.17-1.64"/><path class="cls-9" d="M1164.6,148a9.25,9.25,0,0,1,5.2,8.75"/><path class="cls-9" d="M1149.9,144.5s-18.27-1.87-27,1.95"/><path class="cls-9" d="M1120.65,147.87s-11,8.13-9,29.79"/><path class="cls-9" d="M1114.32,170.55A26.78,26.78,0,0,0,1114,181"/><path class="cls-9" d="M1115.17,170.77s-1.16,6.56,1.11,12.34"/><path class="cls-9" d="M1117.52,184s5.74,1.08,8,4.9"/><path class="cls-9" d="M1134.73,175.14s-2-3.2-6.16-1.37-4,10,3.28,13.4"/><path class="cls-9" d="M1131.41,176a2.43,2.43,0,0,1,2.41,2.51s-2.26.52-1.21,2.4-.13,2.1-.61,2"/><path class="cls-9" d="M1131.25,177.39a5.89,5.89,0,0,0-2,2.8c-.25,1.45-1.81.27-1.32-2.22"/><path class="cls-9" d="M1145.36,164.24s-8.56,4.65-7.69,12.48"/><path class="cls-9" d="M1136.58,175.14s-1.71-6.38-8-1.37"/><path class="cls-9" d="M1126.57,188.26s.73-2.35,2.27-3.16"/><path class="cls-9" d="M1150.55,215.9c-5.11-7.22-4.81-8.63-12.63-12.23s-16.87-2.77-16.87-2.77-1-.18-2.08,1.89a23.06,23.06,0,0,1-2.36,4"/><path class="cls-9" d="M1144.26,211.43s1.66,2.8,7,5.09,8,1.47,16,7.65"/><path class="cls-9" d="M1153.75,221.13s5.22-.29,13.44,3,13.64,4.62,18.15,6.24"/><path class="cls-9" d="M1186.25,231.57s5.47,9.23.54,17.51-8.22,9-9.45,15.39"/><path class="cls-9" d="M1151.73,221.55s-6.83,2-9.75,6.69"/><path class="cls-9" d="M1140,231.21s-3.8,5.35-4.07,11.17c-.06,1.43,3.55,15.69,3.84,16.41"/><path class="cls-9" d="M1140.31,260.06l36.31,6"/><path class="cls-9" d="M1117.38,208.08s9.7-3.12,25.49,3.12"/><path class="cls-9" d="M1115.43,209.27s-6.33,7.33-9.85,10.84"/><path class="cls-9" d="M1139.62,261.86S1124,272.81,1114.86,288"/><path class="cls-9" d="M1135.68,258.79s-27.4-1.52-38.53-7.64"/><path class="cls-9" d="M1103.93,221.55s-6.83,14.66-8.15,28"/><path class="cls-9" d="M1155,263.84a202.84,202.84,0,0,1-3.44,23.32c-2.57,12.13-1.51,25.57-2.39,47.24"/><path class="cls-9" d="M1095.91,252s.85,52.87-1.6,67.14"/><path class="cls-9" d="M1094,288s-2.71,9.33-9.86,33.72"/><path class="cls-9" d="M1085.08,324.68s2.42,2.92,10,3,5,4.88,21.5,9.14,28.57,0,28.57,0"/><path class="cls-9" d="M1139.76,340.12s-22.7,61.8-32.08,82.25c-4.68,10.21-10,10.14-36.07,1.84-22.31-7.09-33.78-9.09-33.78-9.09"/><path class="cls-9" d="M1091.44,328.41a52.27,52.27,0,0,0-.18,15.43c1.1,9.41,1.6,15.83,1.6,15.83"/><path class="cls-9" d="M1096.76,346.29s-9.22,42.06-10.47,44-.5,3.06-2.43,2.92-3-1.84-4.92.3"/><path class="cls-9" d="M1083.33,398s-1.43-3.87-9.19-5.1-22.48-7.6-27.24-7"/><path class="cls-9" d="M1096,344.12a64.07,64.07,0,0,1-.92-8.65,68.06,68.06,0,0,1,1.28-8"/><polyline class="cls-9" points="1133.43 367.84 1136.81 420.47 1147.71 481.06"/><path class="cls-9" d="M1111,425.44s.61.59.57,2.59-.51,1,.3,3.21,2.42.62.91,4.53,2.1,8.24,2.38,16.77,6,36.94,6,36.94"/><path class="cls-9" d="M1122.49,490.45s11.75,1.6,25.57-7.41"/><path class="cls-9" d="M1046.16,387.5s3,5.69-1.4,16.51-7.19,9.45-7.19,9.45"/><path class="cls-9" d="M1140.75,490.45a73.67,73.67,0,0,0,3.58,11.13s.43,1.11,1.26,1.16"/><path class="cls-9" d="M1125.72,492s4.26,9,4.32,17.06"/><path class="cls-9" d="M1144.63,499.16a19.93,19.93,0,0,0,10.57,4c6.48.53,18.8-4.54,20-1.62,1.68,4-22.64,17.8-31.74,19.78-9.39,2-12.79,1.86-12.79,1.86"/><path class="cls-9" d="M1129.61,510.63s5.57-2.77,9.91-1.6a4.82,4.82,0,0,0,6.27-3.39c.39-1.21.82-3.16,2.71-2.9"/><path class="cls-9" d="M1129.28,511.27a59.8,59.8,0,0,0,1.15,11.51"/><path class="cls-9" d="M1172.43,500c4.4-1.15,6.64.69,6.73,4.34.06,2.29-1.75,5.3-8.19,9.29a128.54,128.54,0,0,1-21.74,11.09,55.08,55.08,0,0,1-18.17,3.55,6.55,6.55,0,0,1-1.46-5"/><path class="cls-9" d="M1132,511.19a62.43,62.43,0,0,0,1.33,10.43"/><path class="cls-9" d="M1045.55,389.05s-7.74-1.61-12.49-5.12"/><path class="cls-9" d="M1042.3,404.51s-8.46-2.79-14.48-1.19"/><line class="cls-9" x1="1187.78" y1="232.64" x2="1195.79" y2="233.99"/><path class="cls-9" d="M1196.94,233.2s9.88-11.34,18.38-23.49"/><path class="cls-9" d="M1185.77,252s11.73,1.66,17.16.5"/><path class="cls-9" d="M1204.39,252s3.07,1.68,21.36-39.36"/><path class="cls-9" d="M1216.26,207a38.57,38.57,0,0,0-1.42-8.41c-1.19-3.68.83-4.05,3.7-11.49"/><path class="cls-9" d="M1220.14,184.14s2.33-.91,1.9,3.13-1.64,3.92-.42,6"/><path class="cls-9" d="M1222.25,193.69a6.73,6.73,0,0,0,3.14-2.65c1-1.85,5-5.29,5-5.29"/><path class="cls-9" d="M1231.6,185.75a3.29,3.29,0,0,1,1,2.9c-.1,2.12-1,3.18-.12,4.45a4.56,4.56,0,0,1,1.1,3.27c.12,1.79,1.43,2.66,1.12,4.83s1.73,2.86.45,4.7-8.06,5.94-8.06,5.94"/><path class="cls-9" d="M1197.12,211c.07-.17,3.85-1.63,3.85-10.08"/><path class="cls-9" d="M1201.1,199.64a22.92,22.92,0,0,0,4.31-4.86c.6-1.09,1.37-4,.21-4.82s-1.32,1.5-6.08,5.07"/><path class="cls-9" d="M1198.33,195.64a5.85,5.85,0,0,1-2.5,1.61"/><path class="cls-9" d="M1193.29,194s-.93,11.15-4.46,16.39"/><path class="cls-9" d="M1193.29,192.59s.7-.82,3.79-2.36"/><path class="cls-9" d="M1188.16,211.67a170,170,0,0,1-12.7,14.62"/><path class="cls-9" d="M1188.94,230.61s6.36-15.62,8.6-17.74"/><path class="cls-9" d="M1142,258.79s13-6.24,24.78-4.85"/><path class="cls-9" d="M1032.74,382.54s-7.16-5.45-12.61-6.81"/><path class="cls-9" d="M1032.74,384.21s-.09,5.61-4.35,9.13-4.23,4.37-4.67,6.52,3,2.1,2.17,4.71"/><path class="cls-9" d="M1025.09,406.64s-10.06,10.26-12.91,17.83"/><path class="cls-9" d="M1018.68,376.05a27.83,27.83,0,0,1-3.49,13.76c-3.78,6.27-5.88,15.79-6.72,21.59s-.39,21.75,1.61,18.85"/><path class="cls-9" d="M1012.32,374.12s0,10.16-4.65,17.51-5.77,27.11-4.59,35.81c1,7.48,3.58,6.85,5,6.85a3.55,3.55,0,0,0,3.07-3.07"/><path class="cls-9" d="M1013,372.92a24,24,0,0,1,5.71,1.2"/><path class="cls-9" d="M1011.34,373.52s-3.32,3.79-8,29.8"/><path class="cls-9" d="M1019.36,378.75a47,47,0,0,1,11.52,6.34"/><path class="cls-9" d="M1153.32,165.73s3.84-3.83,7.09-1.83"/><path class="cls-9" d="M1144.06,288s-3.91,17.94-10.83,30.2"/><path class="cls-9" d="M1180.8,230.61s4.76,5.16,2.29,13.77-8.29,9.73-10.12,18.69"/><ellipse class="cls-9" cx="1158.35" cy="170.57" rx="0.5" ry="1.89"/><path class="cls-9" d="M1102.86,414.28c7.54-15.41,25.94-68,25.94-68"/><path class="cls-9" d="M1048.8,403.67s26,11,33,14.1,13.83,5.83,18.79.35"/><path class="cls-9" d="M1135.28,485.6s-6.65-35.13-6.48-41.39-4.07-7.31-3.08-12.18"/><line class="cls-9" x1="1125.57" y1="423.68" x2="1122.49" y2="396.9"/><path class="cls-13" d="M1151,707.56a33.84,33.84,0,0,1-13.8-64.74,33.87,33.87,0,0,1,26.36-31.42,33.92,33.92,0,0,1,16.32-19.63,33.85,33.85,0,0,0-28.42,23.39,33.85,33.85,0,0,0-26.36,31.41,33.85,33.85,0,0,0,13.8,64.75h134.6a33.78,33.78,0,0,0,15.92-4,34.52,34.52,0,0,1-3.82.22Z"/><path class="cls-2" d="M1230.69,614.28c-.6.07-1.18.15-1.76.24,0,.23.11.44.15.66C1229.61,614.86,1230.14,614.57,1230.69,614.28Z"/><path class="cls-2" d="M1307.36,677.47a33.84,33.84,0,0,0-39.22-33.41,33.84,33.84,0,0,0-33.62-30,34.55,34.55,0,0,0-3.83.23c-.55.29-1.08.58-1.61.9,0-.22-.11-.43-.15-.66a33.79,33.79,0,0,0-12,4.42,33.84,33.84,0,0,0-33.23-27.42,32.75,32.75,0,0,0-3.85.25,33.92,33.92,0,0,0-16.32,19.63,33.87,33.87,0,0,0-26.36,31.42,33.84,33.84,0,0,0,13.8,64.74h134.6a34.52,34.52,0,0,0,3.82-.22A33.84,33.84,0,0,0,1307.36,677.47Z"/><line class="cls-9" x1="1152.6" y1="711.32" x2="1254.86" y2="711.32"/><path class="cls-9" d="M1111.73,697.62a33.78,33.78,0,0,0,27.19,13.7"/><path class="cls-9" d="M1126.92,637.16a33.33,33.33,0,0,0-1.8,9.41,33.85,33.85,0,0,0-20,30.9"/><path class="cls-9" d="M1183.75,591.52a33.87,33.87,0,0,0-32.27,23.64,33.89,33.89,0,0,0-20.49,13.9"/><path class="cls-9" d="M1225.44,615.28c-.75.21-1.48.44-2.21.69a33.81,33.81,0,0,0-6.25,3,33.91,33.91,0,0,0-15.58-22.46"/><path class="cls-9" d="M1285.75,645.91a33.92,33.92,0,0,0-17.61-1.85,33.61,33.61,0,0,0-5.25-14.62,34,34,0,0,0-10-10,33.62,33.62,0,0,0-18.34-5.4"/><path class="cls-9" d="M1273.52,711.32a33.85,33.85,0,0,0,24.28-57.42"/><path class="cls-13" d="M837.51,77.06l-.64,0a38.11,38.11,0,0,0-35.2,23.52,38.25,38.25,0,0,1,9.34,1.21A38.21,38.21,0,0,1,837.51,77.06Z"/><path class="cls-13" d="M922.55,210.39H770.91a38.12,38.12,0,0,1-7.43-75.5,38.13,38.13,0,0,1,28.29-33.1l-.63,0a38.11,38.11,0,0,0-37.92,34.34,38.12,38.12,0,0,0,7.42,75.5H912.29v0l.8,0a38.32,38.32,0,0,0,9.65-1.23h-.19Z"/><path class="cls-2" d="M951.21,173.5a38.12,38.12,0,0,0-38.12-38.12,37.34,37.34,0,0,0-3.83.2A38.12,38.12,0,0,0,874.1,107a38.12,38.12,0,0,0-36.59-29.94A38.21,38.21,0,0,0,811,101.77a38.25,38.25,0,0,0-9.34-1.21c-.33.8-.64,1.61-.92,2.43a37.91,37.91,0,0,0-9-1.2,38.13,38.13,0,0,0-28.29,33.1,38.12,38.12,0,0,0,7.43,75.5H922.55v0h.19A38.14,38.14,0,0,0,951.21,173.5Z"/><path class="cls-9" d="M929.63,139.15a37.85,37.85,0,0,0-16.54-3.77,37.34,37.34,0,0,0-3.83.2A38.12,38.12,0,0,0,874.1,107a38.11,38.11,0,0,0-73.35-4,38.15,38.15,0,0,0-47.53,33.12,38.12,38.12,0,0,0,7.42,75.5H912.29v0l.8,0a38.12,38.12,0,0,0,29.3-62.5"/><path class="cls-9" d="M1197.72,182.13c-.34,5.33-.62,10.73-.64,14.31"/><path class="cls-9" d="M1219.72,165.84a43.9,43.9,0,0,1-6.68.33c-11.3-.34-14-1.64-14-1.64s-.54,6.18-1,13.43"/><path class="cls-9" d="M1229.37,186.68s1.76-17.92,4.72-24.78a49.55,49.55,0,0,1-9.15,3"/><path class="cls-9" d="M1197.93,210.42s-.39,4.18-.39,6.8c0,0,5.67,3,11.34,1.26"/><path class="cls-9" d="M1229.37,210.42a18.24,18.24,0,0,0-.49,4.88,24.39,24.39,0,0,1-4.79,1.31"/></svg>